<svg width="212" height="22" viewBox="0 0 212 22" fill="none" xmlns="http://www.w3.org/2000/svg">
<g clip-path="url(#clip0_1273_105)">
<path d="M47.7189 5.23377L40.9926 21.1048H43.6419L45.295 17.1614H52.3859L53.9777 21.1048H56.602L50.1484 5.23377H47.7217H47.7189ZM46.1967 15.0102L48.9072 8.53989L51.5176 15.0102H46.1939H46.1967ZM6.72634 5.23377L0 21.1048H2.64657L4.29963 17.1614H11.3905L12.9824 21.1048H15.6067L9.15306 5.23377H6.72634ZM5.20408 15.0102L7.91466 8.53989L10.5278 15.0102H5.2013H5.20408ZM208.074 0.5H205.358L204.145 3.63636H205.876L208.077 0.5H208.074ZM29.0733 5.23377H22.3414V21.1048H28.4833C34.8924 21.1048 35.8497 16.1484 35.8497 13.1929C35.8497 8.28664 33.2532 5.23655 29.0733 5.23655V5.23377ZM28.7226 18.8868H24.885V7.47403H28.6141C32.7134 7.47403 33.3256 11.0417 33.3256 13.1707C33.3256 16.8581 31.692 18.8896 28.7226 18.8896V18.8868ZM95.5464 21.102H106.603V18.8868H97.9369V14.1698H105.465V11.9518H97.9369V7.47403H106.603V5.23377H95.5464V21.1048V21.102ZM188.722 5.23377H180.918V21.1048H183.331V15.0102H188.655C192.139 15.0102 193.372 12.2829 193.372 10.0232C193.372 7.17069 191.546 5.23377 188.719 5.23377H188.722ZM188.352 12.7477H183.334V7.4295H188.374C189.993 7.4295 190.92 8.41744 190.92 9.97866C190.92 11.6568 189.96 12.7477 188.352 12.7477ZM165.754 4.83859C162.064 4.83859 157.753 7.01484 157.753 13.1456C157.753 15.7755 158.591 17.9545 160.18 19.4462C161.588 20.7681 163.544 21.4972 165.687 21.4972C171.623 21.4972 173.733 16.9388 173.733 13.0371C173.733 8.13358 170.527 4.83859 165.754 4.83859ZM165.799 19.4545C162.476 19.4545 160.408 17.0445 160.408 13.1679C160.408 11.7041 160.795 6.92579 165.754 6.92579C170.713 6.92579 171.078 11.6039 171.078 13.0371C171.078 17.0557 169.105 19.4545 165.799 19.4545ZM202.269 18.8868V14.1698H209.794V11.9518H202.269V7.47403H210.935V5.23377H199.878V21.1048H211.222V18.8896H202.269V18.8868ZM71.4017 13.7245L66.5343 5.23098H63.5315V21.102H66.0111V9.3859L70.4722 17.1391H72.3145L76.8395 9.23284V21.1048H79.3191V5.23377H76.3163L71.4044 13.7273L71.4017 13.7245ZM151.647 10.0204C151.647 7.1679 149.822 5.23098 146.994 5.23098H139.188V21.102H141.604V15.0074H145.884L149.162 21.102H151.912L148.439 14.8126C150.799 14.1586 151.65 11.8905 151.65 10.0204H151.647ZM141.604 12.7449V7.4295H146.644C148.261 7.4295 149.19 8.41744 149.19 9.97866C149.19 11.6568 148.23 12.7477 146.621 12.7477H141.604V12.7449ZM113.855 7.4462H118.494V21.0993H120.974V7.45176H125.591V5.23377H113.855V7.45176V7.4462Z" fill="white"/>
</g>
<defs>
<clipPath id="clip0_1273_105">
<rect width="211.219" height="21" fill="white" transform="translate(0 0.5)"/>
</clipPath>
</defs>
</svg>
