<svg width="322" height="32" viewBox="0 0 322 32" fill="none" xmlns="http://www.w3.org/2000/svg">
<g clip-path="url(#clip0_718_809)">
<path d="M72.7145 7.21336L62.4649 31.3978H66.502L69.0209 25.3888H79.8261L82.2518 31.3978H86.2507L76.4166 7.21336H72.7188H72.7145ZM70.3949 22.1108L74.5253 12.2513L78.503 22.1108H70.3907H70.3949ZM10.2497 7.21336L0 31.3978H4.03287L6.55182 25.3888H17.357L19.7827 31.3978H23.7816L13.9475 7.21336H10.2497ZM7.93003 22.1108L12.0604 12.2513L16.0424 22.1108H7.92579H7.93003ZM317.065 0H312.927L311.078 4.77922H313.715L317.07 0H317.065ZM44.3021 7.21336H34.044V31.3978H43.4031C53.1694 31.3978 54.6281 23.8452 54.6281 19.3416C54.6281 11.8654 50.6716 7.2176 44.3021 7.2176V7.21336ZM43.7678 28.018H37.92V10.6271H43.6024C49.8489 10.6271 50.7819 16.0636 50.7819 19.3077C50.7819 24.9266 48.2926 28.0223 43.7678 28.0223V28.018ZM145.594 31.3936H162.443V28.018H149.237V20.8301H160.708V17.4503H149.237V10.6271H162.443V7.21336H145.594V31.3978V31.3936ZM287.576 7.21336H275.685V31.3978H279.362V22.1108H287.474C292.783 22.1108 294.662 17.9549 294.662 14.5115C294.662 10.1649 291.88 7.21336 287.572 7.21336H287.576ZM287.012 18.6631H279.366V10.5592H287.046C289.514 10.5592 290.926 12.0647 290.926 14.4437C290.926 17.0008 289.463 18.6631 287.012 18.6631ZM252.578 6.61118C246.955 6.61118 240.386 9.92738 240.386 19.2695C240.386 23.277 241.662 26.5974 244.084 28.8704C246.23 30.8847 249.211 31.9958 252.476 31.9958C261.521 31.9958 264.736 25.0496 264.736 19.1042C264.736 11.6321 259.85 6.61118 252.578 6.61118ZM252.646 28.8831C247.582 28.8831 244.431 25.2107 244.431 19.3035C244.431 17.0729 245.021 9.79168 252.578 9.79168C260.135 9.79168 260.69 16.9202 260.69 19.1042C260.69 25.2277 257.684 28.8831 252.646 28.8831ZM308.219 28.018V20.8301H319.686V17.4503H308.219V10.6271H321.425V7.21336H304.577V31.3978H321.862V28.0223H308.219V28.018ZM108.803 20.1516L101.386 7.20912H96.81V31.3936H100.588V13.5404L107.386 25.3549H110.193L117.089 13.3072V31.3978H120.867V7.21336H116.292L108.807 20.1558L108.803 20.1516ZM231.082 14.5073C231.082 10.1606 228.3 7.20912 223.992 7.20912H212.096V31.3936H215.777V22.1065H222.299L227.295 31.3936H231.485L226.192 21.8097C229.788 20.8131 231.086 17.357 231.086 14.5073H231.082ZM215.777 18.6589V10.5592H223.457C225.921 10.5592 227.337 12.0647 227.337 14.4437C227.337 17.0008 225.874 18.6631 223.423 18.6631H215.777V18.6589ZM173.494 10.5847H180.563V31.3893H184.341V10.5932H191.377V7.21336H173.494V10.5932V10.5847Z" fill="black"/>
</g>
<defs>
<clipPath id="clip0_718_809">
<rect width="321.857" height="32" fill="white"/>
</clipPath>
</defs>
</svg>
