<svg width="294" height="180" viewBox="0 0 294 180" fill="none" xmlns="http://www.w3.org/2000/svg">
<g clip-path="url(#clip0_1273_108)">
<path d="M0.894066 13.0015C1.91955 12.0959 2.86708 11.2923 3.73664 10.5847C4.60621 9.87704 5.35583 9.21137 5.97952 8.58169C6.60321 7.952 7.10096 7.34031 7.45479 6.74061C7.80861 6.14091 7.98852 5.48124 7.98852 4.76759C7.98852 4.05395 7.79062 3.49023 7.38882 3.07644C6.98702 2.66265 6.44729 2.45875 5.76363 2.45875C4.93005 2.45875 4.30036 2.63866 3.88057 2.99248C3.46078 3.34631 3.15494 3.952 2.95104 4.80358L0.744141 4.49773C0.864081 3.958 1.03799 3.44226 1.25988 2.9505C1.48177 2.45875 1.79362 2.02697 2.18942 1.65515C2.58522 1.28334 3.07697 0.989484 3.66468 0.767595C4.25239 0.545706 4.96003 0.431763 5.79961 0.431763C7.29886 0.431763 8.4323 0.809574 9.2179 1.57719C9.99751 2.33881 10.3933 3.3523 10.3933 4.62367C10.3933 5.42127 10.2494 6.12891 9.96153 6.7586C9.67368 7.38829 9.25988 7.99998 8.72615 8.61167C8.19242 9.21737 7.55074 9.84706 6.80711 10.5007C6.05748 11.1544 5.2179 11.904 4.28837 12.7556H10.5792L10.2974 14.8006H0.894066V13.0015Z" fill="#FF5B00"/>
<path d="M17.4458 15.1664C16.6362 15.1664 15.9106 15.0225 15.2749 14.7406C14.6332 14.4587 14.0935 14.015 13.6497 13.4153C13.2059 12.8156 12.8641 12.048 12.6302 11.1184C12.3963 10.1889 12.2764 9.08544 12.2764 7.80208C12.2764 5.33731 12.7321 3.49023 13.6437 2.27284C14.5552 1.05545 15.8506 0.443756 17.5357 0.443756C19.2209 0.443756 20.4383 1.03746 21.3498 2.23086C22.2614 3.42427 22.7171 5.28334 22.7171 7.80208C22.7171 9.08544 22.5972 10.1829 22.3633 11.1064C22.1294 12.03 21.7816 12.7916 21.3318 13.3913C20.8821 13.991 20.3243 14.4348 19.6707 14.7286C19.017 15.0225 18.2794 15.1664 17.4578 15.1664H17.4458ZM17.4698 13.1454C17.9975 13.1454 18.4353 13.0195 18.7951 12.7736C19.1489 12.5217 19.4428 12.1679 19.6647 11.7121C19.8866 11.2564 20.0485 10.6926 20.1504 10.033C20.2524 9.37329 20.3004 8.62966 20.3004 7.80807C20.3004 6.98649 20.2524 6.26684 20.1504 5.60118C20.0485 4.94151 19.8866 4.37779 19.6647 3.91002C19.4428 3.44226 19.1549 3.08843 18.7951 2.83656C18.4353 2.58469 17.9975 2.46475 17.4698 2.46475C16.942 2.46475 16.5043 2.59068 16.1444 2.84855C15.7846 3.10642 15.5028 3.46625 15.2869 3.92801C15.071 4.38978 14.915 4.9535 14.8191 5.60717C14.7231 6.26085 14.6752 6.99248 14.6752 7.80208C14.6752 9.52921 14.8851 10.8486 15.3109 11.7661C15.7366 12.6836 16.4563 13.1394 17.4638 13.1394L17.4698 13.1454Z" fill="#FF5B00"/>
<path d="M24.5043 13.0015C25.5298 12.0959 26.4773 11.2923 27.3469 10.5847C28.2164 9.87704 28.9661 9.21137 29.5897 8.58169C30.2194 7.958 30.7112 7.34031 31.065 6.74061C31.4188 6.14091 31.5987 5.48124 31.5987 4.76759C31.5987 4.05395 31.4008 3.49023 31.005 3.07644C30.6092 2.66265 30.0635 2.45875 29.3798 2.45875C28.5463 2.45875 27.9166 2.63866 27.4968 2.99248C27.077 3.34631 26.7711 3.952 26.5672 4.80358L24.3604 4.49773C24.4803 3.958 24.6542 3.44226 24.8761 2.9505C25.098 2.45875 25.4098 2.02697 25.8056 1.65515C26.2014 1.28334 26.6932 0.989484 27.2809 0.767595C27.8686 0.545706 28.5762 0.431763 29.4158 0.431763C30.9151 0.431763 32.0485 0.809574 32.8341 1.57719C33.6197 2.34481 34.0095 3.3523 34.0095 4.62367C34.0095 5.42127 33.8656 6.12891 33.5717 6.7586C33.2839 7.38829 32.8701 7.99998 32.3364 8.61167C31.8026 9.22337 31.161 9.84706 30.4173 10.5007C29.6677 11.1544 28.8281 11.904 27.8986 12.7556H34.1894L33.9076 14.8006H24.5043V13.0015Z" fill="#FF5B00"/>
<path d="M42.0512 0.827576H44.2162V9.64317H46.0572L45.7754 11.5022H44.2162V14.8006H42.0093V11.5022H35.5205V9.86506L42.0512 0.827576ZM42.0093 3.84407L37.9013 9.64917H42.0093V3.84407Z" fill="#FF5B00"/>
<path d="M54.4893 10.3928C54.5973 11.3343 54.9391 12.024 55.5088 12.4558C56.0845 12.8876 56.9361 13.1034 58.0695 13.1034C58.6213 13.1034 59.089 13.0435 59.4668 12.9235C59.8446 12.8036 60.1445 12.6417 60.3784 12.4378C60.6063 12.2339 60.7682 11.994 60.8641 11.7181C60.9601 11.4423 61.0081 11.1484 61.0081 10.8366C61.0081 10.6087 60.9721 10.3808 60.9061 10.1589C60.8401 9.93703 60.7202 9.73313 60.5403 9.54123C60.3664 9.35532 60.1265 9.18741 59.8326 9.04348C59.5388 8.89955 59.161 8.7916 58.6992 8.70765L56.8581 8.36582C56.1325 8.23388 55.4848 8.05997 54.9151 7.86207C54.3514 7.65817 53.8716 7.3943 53.4878 7.06447C53.104 6.73463 52.8162 6.33283 52.6183 5.85307C52.4204 5.37331 52.3244 4.7916 52.3244 4.10195C52.3244 3.41229 52.4623 2.81259 52.7382 2.30285C53.0141 1.7931 53.3979 1.36132 53.8776 1.01949C54.3634 0.677661 54.9391 0.41979 55.6048 0.251874C56.2704 0.083958 56.9961 0 57.7757 0C58.7712 0 59.6108 0.113943 60.2824 0.341829C60.9541 0.569715 61.5058 0.869565 61.9196 1.24138C62.3394 1.61319 62.6512 2.03898 62.8671 2.52474C63.083 3.01049 63.2329 3.51424 63.3109 4.04198L61.0081 4.4078C60.8162 3.5982 60.4923 2.9985 60.0246 2.6087C59.5568 2.21889 58.8192 2.02099 57.8117 2.02099C57.23 2.02099 56.7502 2.06897 56.3664 2.17091C55.9826 2.27286 55.6707 2.41079 55.4368 2.5967C55.203 2.77661 55.035 2.98651 54.9331 3.22039C54.8311 3.45427 54.7832 3.70015 54.7832 3.95802C54.7832 4.5937 54.9571 5.06147 55.2989 5.37331C55.6407 5.68516 56.2464 5.92504 57.11 6.09895L59.113 6.48276C60.6362 6.76462 61.7577 7.25037 62.4713 7.92804C63.185 8.61169 63.5448 9.5892 63.5448 10.8726C63.5448 11.4783 63.4309 12.042 63.209 12.5577C62.9871 13.0795 62.6452 13.5292 62.1895 13.913C61.7337 14.2969 61.164 14.6027 60.4803 14.8246C59.7967 15.0465 59.0051 15.1604 58.1055 15.1604C56.2584 15.1604 54.8072 14.7706 53.7577 13.997C52.7082 13.2234 52.1265 12.018 52.0186 10.3868H54.4833L54.4893 10.3928Z" fill="#FF5B00"/>
<path d="M65.9497 0.365814H70.9452C72.0367 0.365814 72.9362 0.485754 73.6439 0.731631C74.3515 0.971511 74.9092 1.29535 75.311 1.70315C75.7128 2.11094 76.0007 2.57871 76.1626 3.10644C76.3245 3.64018 76.4025 4.1979 76.4025 4.77361C76.4025 5.3913 76.3245 5.985 76.1626 6.55472C76.0007 7.12443 75.7128 7.61619 75.305 8.04198C74.8912 8.46776 74.3395 8.80359 73.6379 9.05547C72.9362 9.30734 72.0547 9.42728 70.9872 9.42728H68.3605V14.8066H65.9557V0.365814H65.9497ZM70.9212 7.38231C71.5389 7.38231 72.0487 7.32234 72.4505 7.2024C72.8463 7.08246 73.1641 6.90854 73.392 6.68665C73.6199 6.46476 73.7818 6.2009 73.8658 5.88905C73.9557 5.57721 73.9977 5.22938 73.9977 4.83958C73.9977 4.44977 73.9497 4.08395 73.8538 3.77811C73.7578 3.47226 73.5959 3.22039 73.356 3.02249C73.1221 2.81859 72.8043 2.66267 72.4085 2.55472C72.0127 2.44677 71.5089 2.3928 70.9032 2.3928H68.3545V7.3883H70.9212V7.38231Z" fill="#FF5B00"/>
<path d="M83.4126 0.365814C84.504 0.365814 85.4036 0.491751 86.1112 0.749622C86.8189 1.00749 87.3766 1.33733 87.7904 1.75112C88.2042 2.16491 88.486 2.61469 88.648 3.11844C88.8099 3.61619 88.8938 4.10794 88.8938 4.5937C88.8938 5.53523 88.7079 6.32683 88.3361 6.96252C87.9643 7.5982 87.3706 8.10794 86.549 8.49775L89.5415 14.8066H86.8728L84.2821 9.06147C84.1622 9.07346 84.0303 9.08545 83.8983 9.09145C83.7664 9.09745 83.6225 9.10345 83.4726 9.10345H80.8818V14.8066H78.4771V0.365814H83.4126ZM83.5925 7.03448C84.1442 7.03448 84.606 6.98051 84.9658 6.86057C85.3316 6.74662 85.6135 6.5847 85.8234 6.37481C86.0333 6.16491 86.1832 5.91304 86.2672 5.61919C86.3511 5.32533 86.3991 4.9895 86.3991 4.62968C86.3991 4.29385 86.3511 3.988 86.2492 3.70614C86.1472 3.43028 85.9793 3.1964 85.7454 2.9985C85.5115 2.8006 85.1937 2.65067 84.8039 2.54273C84.4141 2.43478 83.9283 2.38081 83.3466 2.38081H80.8818V7.02848H83.5925V7.03448Z" fill="#FF5B00"/>
<path d="M91.4966 0.365814H93.9434V14.8066H91.4966V0.365814Z" fill="#FF5B00"/>
<path d="M97.0078 0.365814H99.2747L105.907 10.8006V0.365814H108.294V14.8066H106.027L99.3766 4.41379V14.8066H97.0078V0.365814Z" fill="#FF5B00"/>
<path d="M123.263 7.13642V13.0794C122.519 13.7691 121.644 14.2848 120.636 14.6387C119.629 14.9925 118.609 15.1664 117.584 15.1664C116.462 15.1664 115.485 14.9865 114.639 14.6327C113.794 14.2788 113.092 13.7691 112.528 13.1154C111.964 12.4618 111.539 11.6701 111.257 10.7406C110.975 9.81108 110.831 8.7676 110.831 7.60418C110.831 6.44076 110.987 5.3793 111.299 4.43777C111.611 3.49624 112.048 2.70463 112.612 2.03897C113.182 1.3793 113.866 0.875547 114.675 0.521724C115.485 0.173898 116.39 -0.00601196 117.386 -0.00601196C118.261 -0.00601196 119.029 0.107931 119.683 0.32982C120.336 0.551709 120.888 0.857556 121.344 1.24736C121.794 1.63717 122.159 2.09294 122.435 2.61468C122.711 3.13642 122.909 3.68814 123.035 4.28184L120.63 4.62367C120.522 4.22187 120.39 3.85606 120.234 3.54421C120.078 3.22637 119.875 2.9625 119.629 2.74661C119.377 2.53072 119.071 2.3688 118.711 2.24886C118.345 2.13492 117.908 2.07495 117.398 2.07495C116.726 2.07495 116.132 2.20688 115.629 2.47075C115.125 2.73462 114.705 3.10643 114.363 3.59219C114.027 4.07795 113.776 4.65966 113.614 5.33132C113.452 6.00298 113.374 6.75261 113.374 7.5742C113.374 8.39579 113.452 9.18739 113.614 9.85906C113.776 10.5307 114.033 11.1064 114.381 11.5862C114.729 12.066 115.173 12.4318 115.707 12.6896C116.24 12.9475 116.882 13.0734 117.638 13.0734C118.309 13.0734 118.915 13.0015 119.461 12.8636C120 12.7196 120.516 12.4737 121.02 12.1259V9.19339H117.824V7.13042H123.287L123.263 7.13642Z" fill="#FF5B00"/>
<path d="M27.1488 78.015V78.2129C34.1953 80.096 37.5716 86.051 37.5716 95.0825C37.5716 108.582 33.1038 115.826 19.6106 115.826H0.75V43.8801H17.4217C29.7275 43.8801 35.1848 51.0285 35.1848 62.3388C35.1848 70.9745 32.804 75.8321 27.1488 78.021V78.015ZM10.5731 74.7406H17.8175C23.9704 74.7406 25.7575 71.0705 25.7575 63.4303C25.7575 55.7901 23.5746 52.9116 17.8175 52.9116H10.5731V74.7466V74.7406ZM10.5731 106.891H19.2088C25.0618 106.891 27.6466 104.312 27.6466 94.5847C27.6466 85.4573 24.9659 82.7766 19.3107 82.7766H10.5791V106.891H10.5731Z" fill="#FF5B00"/>
<path d="M63.9764 43.8741V106.495H84.6181V115.826H54.1533V43.88H63.9764V43.8741Z" fill="#FF5B00"/>
<path d="M137.745 64.6177V94.9865C137.745 108.78 131.095 116.822 118.297 116.822C105.5 116.822 98.9448 108.786 98.9448 94.9865V64.7196C98.9448 50.9265 105.595 42.8846 118.297 42.8846C130.999 42.8846 137.745 50.9205 137.745 64.6177ZM127.622 64.7136C127.622 55.5862 124.744 51.8141 118.393 51.8141C112.042 51.8141 108.966 55.5862 108.966 64.7136V94.9805C108.966 104.21 111.94 108.078 118.297 108.078C124.654 108.078 127.628 104.21 127.628 94.9805V64.7136H127.622Z" fill="#FF5B00"/>
<path d="M193.32 43.8741V95.4783C193.32 109.271 186.471 116.816 173.967 116.816C161.464 116.816 154.519 109.469 154.519 95.8741V43.8741H164.642V95.976C164.642 104.51 168.51 107.388 173.973 107.388C179.928 107.388 183.305 104.216 183.305 95.976V43.8741H193.326H193.32Z" fill="#FF5B00"/>
<path d="M244.078 57.967L236.834 60.7436C235.347 54.4887 231.97 51.5142 227.305 51.5142C221.943 51.5142 219.665 54.8905 219.665 60.3478C219.665 75.1364 244.378 75.5322 244.378 97.1634C244.378 109.865 237.53 116.816 226.813 116.816C217.979 116.816 210.735 110.963 208.852 100.144L216.792 97.6612C218.381 105.205 222.249 108.18 226.717 108.18C232.174 108.18 234.753 105.007 234.753 98.5547C234.753 82.1829 209.746 82.5787 209.746 61.0435C209.746 50.6207 216 42.8846 226.615 42.8846C236.144 42.8846 241.698 48.8396 244.078 57.967Z" fill="#FF5B00"/>
<path d="M292.006 43.8741V53.1034H270.471V74.4408H287.443V82.6806H270.471V106.699H293.098V115.826H260.45V43.88H292.006V43.8741Z" fill="#FF5B00"/>
<path d="M17.7815 151.886L14.0394 153.037C13.4636 150.063 12.1683 148.576 9.91342 148.576C7.03486 148.576 5.64355 150.735 5.64355 154.765V169.925C5.64355 173.523 6.98688 175.826 9.86544 175.826C12.2163 175.826 13.4157 174.627 14.0873 170.981L17.7815 172.084C16.9179 177.697 14.1353 180 9.48163 180C4.06035 180 0.75 176.018 0.75 169.973V154.813C0.75 148.24 4.10832 144.258 9.57759 144.258C13.8954 144.258 16.9659 147.376 17.7815 151.886Z" fill="#FF5B00"/>
<path d="M40.4141 171.988C40.4141 176.546 37.7754 179.952 32.69 179.952C27.6045 179.952 24.9658 176.594 24.9658 171.988V162.777C24.9658 158.171 27.5565 154.717 32.69 154.717C37.8234 154.717 40.4141 158.123 40.4141 162.777V171.988ZM29.3316 171.796C29.3316 174.819 30.4351 176.306 32.69 176.306C34.9448 176.306 36.0003 174.819 36.0003 171.796V162.921C36.0003 159.898 34.9448 158.411 32.69 158.411C30.4351 158.411 29.3316 159.898 29.3316 162.921V171.796Z" fill="#FF5B00"/>
<path d="M52.678 143.634V179.52H48.2642V143.634H52.678Z" fill="#FF5B00"/>
<path d="M65.5056 143.634V179.52H61.0918V143.634H65.5056Z" fill="#FF5B00"/>
<path d="M77.7516 167.814V171.748C77.7516 174.771 78.9989 176.258 81.3018 176.258C83.1249 176.258 84.1324 175.25 84.9 172.468L88.2103 173.523C87.2028 177.889 84.9 179.952 80.87 179.952C75.9764 179.952 73.3857 176.498 73.3857 171.892V162.729C73.3857 158.219 75.9285 154.717 80.87 154.717C85.8115 154.717 88.1144 158.267 88.1144 162.921V167.814H77.7516ZM77.7516 164.888H84.1324V162.537C84.1324 159.658 83.0289 158.315 80.9659 158.315C78.7591 158.315 77.7516 159.706 77.7516 162.537V164.888Z" fill="#FF5B00"/>
<path d="M106.255 161.769C105.68 159.37 104.528 158.459 102.993 158.459C100.93 158.459 99.6827 159.754 99.6827 162.921V171.748C99.6827 174.915 100.882 176.258 102.993 176.258C104.624 176.258 105.68 175.298 106.303 172.804L109.614 173.859C108.654 177.697 106.303 179.952 102.609 179.952C97.7157 179.952 95.3169 176.306 95.3169 171.94V162.777C95.3169 158.267 97.7637 154.717 102.609 154.717C106.064 154.717 108.558 156.924 109.518 160.666L106.255 161.769Z" fill="#FF5B00"/>
<path d="M127.035 158.747H122.477V173.427C122.477 175.394 123.388 176.354 124.924 176.354C125.547 176.354 126.123 176.21 126.651 175.97L127.131 178.849C126.123 179.472 124.876 179.904 123.34 179.904C119.694 179.904 118.063 177.649 118.063 173.283V158.986L115.568 158.363V155.244L118.303 155.052L119.406 148.432H122.477V155.148H127.035V158.747Z" fill="#FF5B00"/>
<path d="M138.885 155.148V179.52H134.471V155.148H138.885ZM138.741 144.738V150.303H134.615V144.738H138.741Z" fill="#FF5B00"/>
<path d="M162.111 171.988C162.111 176.546 159.473 179.952 154.387 179.952C149.302 179.952 146.663 176.594 146.663 171.988V162.777C146.663 158.171 149.254 154.717 154.387 154.717C159.521 154.717 162.111 158.123 162.111 162.777V171.988ZM151.029 171.796C151.029 174.819 152.132 176.306 154.387 176.306C156.642 176.306 157.698 174.819 157.698 171.796V162.921C157.698 159.898 156.642 158.411 154.387 158.411C152.132 158.411 151.029 159.898 151.029 162.921V171.796Z" fill="#FF5B00"/>
<path d="M174.195 179.52H169.781V155.148H173.619L173.763 157.115H173.859C175.107 155.532 176.882 154.717 179.041 154.717C182.975 154.717 185.182 157.595 185.182 163.016V179.52H180.768V163.112C180.768 159.946 179.712 158.651 177.697 158.651C176.066 158.651 174.915 159.466 174.195 160.522V179.52Z" fill="#FF5B00"/>
</g>
<defs>
<clipPath id="clip0_1273_108">
<rect width="292.348" height="180" fill="white" transform="translate(0.75)"/>
</clipPath>
</defs>
</svg>
