<?xml version="1.0" encoding="UTF-8"?>
<svg id="_レイヤー_2" data-name="レイヤー 2" xmlns="http://www.w3.org/2000/svg" viewBox="0 0 400 88.71">
  <defs>
    <style>
      .cls-1 {
        stroke-width: 0px;
      }
    </style>
  </defs>
  <g id="_レイヤー_1-2" data-name="レイヤー 1">
    <g>
      <path class="cls-1" d="m.49,85.63l40.91-29.98c11.92-8.72,14.5-15.61,14.5-28.51,0-14.5-6.51-23.71-23.1-23.71-9.95,0-19.66,4.42-19.66,7.74,0,.86.49,1.23,1.47,1.35,7.37.86,12.53,5.65,12.53,12.29,0,6.26-4.91,12.41-13.27,12.41S0,31.33,0,23.34C0,8.35,17.08.12,39.56.12c27.89,0,43.37,8.35,43.37,22.11,0,9.71-8.48,17.32-25.19,27.4-8.11,4.92-14.25,8.85-26.66,17.69h34.52c9.09,0,12.29-1.97,14.87-13.27l1.23-5.28h2.21v37.84H.49v-.98ZM24.2,24.82c0-4.92-3.81-8.6-9.09-9.21-3.32-.37-4.55-1.97-4.55-4.06,0-.49.24-1.47.74-2.58l-.12-.12C5.04,13.39,2.95,18.31,2.95,23.34c0,6.14,4.79,10.93,10.94,10.93,5.77,0,10.32-4.18,10.32-9.46Zm-13.02,3.81c0-.86.49-1.6,1.23-2.09v-6.39c-2.83,3.93-3.93,4.67-5.04,4.67s-1.72-.86-1.72-1.72c0-1.72,1.6-2.83,6.76-4.92h2.09c5.28,2.09,6.88,3.32,6.88,4.92,0,.86-.61,1.72-1.72,1.72-1.35,0-2.33-.98-5.04-4.67v6.39c.74.49,1.23,1.23,1.23,2.09,0,1.23-1.1,2.33-2.33,2.33s-2.33-1.11-2.33-2.33Zm-4.55-.74c0-.74.62-1.35,1.35-1.35s1.35.61,1.35,1.35-.62,1.35-1.35,1.35-1.35-.61-1.35-1.35Zm74.33,55.78v-21.87h-.12c-2.58,5.65-6.39,8.48-15.23,8.48H26.91l-18.55,13.39h72.61ZM17.69,27.89c0-.74.62-1.35,1.35-1.35s1.35.61,1.35,1.35-.62,1.35-1.35,1.35-1.35-.61-1.35-1.35Zm13.39,53.08c0-.98,1.72-2.09,3.07-2.95h-4.05c-.49.74-1.23,1.23-2.09,1.23-1.35,0-2.46-.98-2.46-2.33s1.11-2.33,2.46-2.33c.86,0,1.6.49,2.09,1.23h3.81c-1.35-.86-2.82-1.97-2.82-2.83s.61-1.48,1.35-1.48c1.1,0,1.84.98,3.07,4.3h4.55c-1.35-.86-2.83-1.97-2.83-2.83s.62-1.48,1.35-1.48c1.11,0,1.84.98,3.07,4.3h4.42c.62-1.84,2.33-3.32,4.3-3.32s3.69,1.48,4.3,3.32h4.42c1.23-3.32,1.97-4.3,3.07-4.3.74,0,1.35.62,1.35,1.48s-1.47,1.96-2.83,2.83h4.55c1.23-3.32,1.96-4.3,3.07-4.3.74,0,1.35.62,1.35,1.48s-1.47,1.96-2.83,2.83h4.05c.37-.74,1.11-1.23,2.09-1.23,1.35,0,2.33.98,2.33,2.33s-.98,2.33-2.33,2.33c-.98,0-1.72-.49-2.09-1.23h-4.3c1.35.86,3.07,1.97,3.07,2.95s-.62,1.47-1.35,1.47c-1.23,0-1.97-.98-3.19-4.42h-4.67c1.35.86,3.07,1.97,3.07,2.95s-.61,1.47-1.35,1.47c-1.23,0-1.96-.98-3.19-4.42h-4.3c-.61,1.84-2.33,3.32-4.3,3.32s-3.69-1.48-4.3-3.32h-4.3c-1.23,3.44-1.96,4.42-3.19,4.42-.74,0-1.35-.49-1.35-1.47s1.72-2.09,3.07-2.95h-4.67c-1.23,3.44-1.97,4.42-3.19,4.42-.74,0-1.35-.49-1.35-1.47Zm11.67-7.86c0-.74.62-1.35,1.35-1.35s1.35.62,1.35,1.35-.61,1.35-1.35,1.35-1.35-.61-1.35-1.35Zm0,7.74c0-.74.62-1.35,1.35-1.35s1.35.61,1.35,1.35-.61,1.35-1.35,1.35-1.35-.62-1.35-1.35Zm14.38-33.66c11.67-7.62,22.61-15.73,22.61-25.06,0-11.18-12.78-18.06-35.38-19.54v.12c9.95,3.81,14.74,12.29,14.74,24.45,0,10.69-1.84,16.96-9.09,24.33l.24.25c2.33-1.72,4.79-3.2,6.88-4.55Zm-1.84,25.92c0-.74.62-1.35,1.35-1.35s1.35.62,1.35,1.35-.61,1.35-1.35,1.35-1.35-.61-1.35-1.35Zm0,7.74c0-.74.62-1.35,1.35-1.35s1.35.61,1.35,1.35-.61,1.35-1.35,1.35-1.35-.62-1.35-1.35Zm10.32-48.53c0-1.23.98-2.34,2.09-2.46.37-1.23.62-2.33.74-3.56-1.84,1.72-4.79,4.18-6.39,4.18-1.11,0-1.84-.74-1.84-1.72,0-1.6,1.96-2.7,8.48-4.55v-1.72c-7.25-1.72-9.46-2.82-9.46-4.91,0-.98.86-1.72,1.96-1.72,1.97,0,5.28,2.46,7.37,4.42-.24-1.23-.49-2.46-1.1-3.69h-.12c-1.35,0-2.46-1.11-2.46-2.46s1.11-2.46,2.46-2.46,2.46,1.11,2.46,2.46c0,.62-.25,1.11-.49,1.48.74,1.47,1.1,2.95,1.35,4.42,1.35-2.21,3.19-4.79,4.67-4.79,1.23,0,1.84.74,1.84,1.72,0,1.84-1.47,3.07-6.27,5.28v2.09c4.3,2.21,5.65,3.2,5.65,4.3,0,.86-.61,1.6-1.72,1.6-1.35,0-2.83-1.84-4.05-3.81-.25,1.35-.62,2.7-.98,4.18.49.37.74.98.74,1.72,0,1.35-1.1,2.46-2.46,2.46s-2.46-1.11-2.46-2.46Zm-4.79-9.09c0-.86.62-1.47,1.47-1.47s1.47.62,1.47,1.47-.62,1.47-1.47,1.47-1.47-.62-1.47-1.47Zm14.13,0c0-.86.61-1.47,1.47-1.47s1.47.62,1.47,1.47-.61,1.47-1.47,1.47-1.47-.62-1.47-1.47Z"/>
      <path class="cls-1" d="m196.94,44.23c0,26.54-19.29,44.23-47.3,44.23s-47.3-17.69-47.3-44.23S121.87,0,149.63,0s47.3,17.45,47.3,44.23Zm-60.08,40.05c-9.34-7-10.44-22.24-10.44-40.05s1.11-32.93,10.44-40.05l-.12-.12c-19.29,4.79-31.21,19.78-31.21,40.18s12.04,35.38,31.21,40.18l.12-.12Zm-29.12-43.99c0-.86.62-1.47,1.47-1.47s1.47.61,1.47,1.47-.62,1.47-1.47,1.47-1.47-.62-1.47-1.47Zm0,8.11c0-.86.62-1.47,1.47-1.47s1.47.61,1.47,1.47-.62,1.48-1.47,1.48-1.47-.62-1.47-1.48Zm18.92,17.69c0,.74-.61,1.23-1.47,1.23-1.35,0-3.07-.74-4.79-1.97.49.98.98,1.97,1.72,2.83h.37c1.35,0,2.46,1.11,2.46,2.46s-1.1,2.46-2.46,2.46-2.46-1.1-2.46-2.46c0-.37.12-.86.24-1.23-.61-.86-1.23-1.96-1.84-3.07-.49,2.83-1.23,4.05-2.46,4.05-.74,0-1.23-.62-1.23-1.6,0-1.23.74-2.46,2.83-4.55-.49-1.47-.98-2.95-1.35-4.55-1.35,3.44-2.33,4.67-3.81,4.67-.98,0-1.72-.86-1.72-1.97,0-1.47,1.6-3.19,5.04-5.53-.24-1.47-.37-3.07-.49-4.55-2.95,3.69-4.05,4.67-5.53,4.67-.98,0-1.72-.74-1.72-1.72,0-1.97,2.21-3.32,7.12-4.42-.12-.62-.12-1.11-.12-1.72-2.09-.49-3.69-2.46-3.69-4.79s1.6-4.06,3.69-4.67c0-.74,0-1.35.12-2.09-4.91-.98-7.12-2.33-7.12-4.3,0-1.11.62-1.72,1.72-1.72,1.6,0,3.07,1.23,5.53,4.67.12-1.6.25-3.19.49-4.79-3.93-2.58-5.16-3.81-5.16-5.16,0-.98.74-1.97,1.84-1.97,1.35,0,2.46,1.23,3.93,4.42.24-1.6.74-3.19,1.23-4.55-1.23-1.35-2.7-3.19-2.7-4.55,0-.86.49-1.6,1.35-1.6,1.23,0,1.97,2.09,2.33,3.81.49-.98,1.11-1.97,1.72-2.83-.12-.37-.24-.86-.24-1.23,0-1.35,1.1-2.46,2.46-2.46s2.46,1.11,2.46,2.46-1.1,2.46-2.46,2.46h-.37c-.61.74-1.1,1.6-1.6,2.46,1.84-1.11,3.56-1.84,4.67-1.84.86,0,1.35.62,1.35,1.47,0,1.23-1.6,1.96-6.88,2.7-.49,1.35-.86,2.7-1.23,4.18,1.72-1.72,4.05-3.56,5.9-3.56.86,0,1.6.61,1.6,1.6,0,2.09-1.84,3.07-7.86,4.3-.24,1.35-.37,2.7-.49,4.05,1.84-1.84,4.55-3.93,6.27-3.93.98,0,1.72.62,1.72,1.48,0,2.09-1.97,3.07-8.11,4.55,0,.61-.12,1.35-.12,1.97,2.09.61,3.69,2.46,3.69,4.67s-1.6,4.18-3.69,4.79c.12.49.12,1.1.12,1.6,5.78,1.35,7.99,2.46,8.11,4.05,0,.98-.62,1.96-1.84,1.96-1.6,0-4.18-1.96-6.14-3.81.12,1.23.25,2.46.49,3.69,5.16,1.1,7.86,2.7,7.86,4.67,0,.86-.62,1.48-1.35,1.48-1.84,0-3.69-1.11-6.14-3.56.37,1.47.74,2.95,1.23,4.3,5.16.49,7,1.11,7,2.58Zm-2.21-25.8c0,.86-.61,1.47-1.47,1.47s-1.47-.62-1.47-1.47.61-1.47,1.47-1.47,1.47.61,1.47,1.47Zm0,8.11c0,.86-.61,1.48-1.47,1.48s-1.47-.62-1.47-1.48.61-1.47,1.47-1.47,1.47.61,1.47,1.47Zm45.21-4.18c0-23.96-1.47-41.28-20.03-41.28s-20.03,17.32-20.03,41.28,1.6,41.28,20.03,41.28,20.03-16.83,20.03-41.28Zm24.08,0c0-20.4-11.92-35.39-31.21-40.18l-.12.12c9.34,7.13,10.44,22.24,10.44,40.05s-1.11,33.05-10.44,40.05l.12.12c19.17-4.79,31.21-19.78,31.21-40.18Zm-2.46,11.06c0,.98-.74,1.72-1.72,1.72-1.47,0-2.58-.98-5.53-4.67-.12,1.47-.24,3.07-.49,4.55,3.44,2.33,5.04,4.06,5.04,5.53,0,1.11-.74,1.97-1.72,1.97-1.47,0-2.46-1.23-3.81-4.67-.37,1.6-.86,3.07-1.35,4.55,2.09,2.09,2.83,3.32,2.83,4.55,0,.98-.49,1.6-1.23,1.6-1.23,0-1.97-1.23-2.46-4.05-.61,1.11-1.23,2.21-1.84,3.07.12.37.25.86.25,1.23,0,1.35-1.11,2.46-2.46,2.46s-2.46-1.1-2.46-2.46,1.11-2.46,2.46-2.46h.37c.74-.86,1.23-1.84,1.72-2.83-1.72,1.23-3.44,1.97-4.79,1.97-.86,0-1.47-.49-1.47-1.23,0-1.47,1.84-2.09,7-2.58.49-1.35.86-2.83,1.23-4.3-2.46,2.46-4.3,3.56-6.14,3.56-.74,0-1.35-.62-1.35-1.48,0-1.96,2.7-3.56,7.86-4.67.24-1.23.37-2.46.49-3.69-1.96,1.84-4.55,3.81-6.14,3.81-1.23,0-1.84-.98-1.84-1.96.12-1.6,2.33-2.7,8.11-4.05,0-.49,0-1.11.12-1.6-2.09-.62-3.69-2.58-3.69-4.79s1.6-4.06,3.69-4.67c0-.62-.12-1.35-.12-1.97-6.14-1.47-8.11-2.46-8.11-4.55,0-.86.74-1.48,1.72-1.48,1.72,0,4.42,2.09,6.26,3.93-.12-1.35-.24-2.7-.49-4.05-6.02-1.23-7.86-2.21-7.86-4.3,0-.98.74-1.6,1.6-1.6,1.84,0,4.18,1.84,5.9,3.56-.37-1.47-.74-2.83-1.23-4.18-5.28-.74-6.88-1.47-6.88-2.7,0-.86.49-1.47,1.35-1.47,1.11,0,2.83.74,4.67,1.84-.49-.86-.98-1.72-1.6-2.46h-.37c-1.35,0-2.46-1.11-2.46-2.46s1.11-2.46,2.46-2.46,2.46,1.11,2.46,2.46c0,.37-.12.86-.25,1.23.62.86,1.23,1.84,1.72,2.83.37-1.72,1.1-3.81,2.33-3.81.86,0,1.35.74,1.35,1.6,0,1.35-1.47,3.19-2.7,4.55.49,1.35.98,2.95,1.23,4.55,1.47-3.19,2.58-4.42,3.93-4.42,1.11,0,1.84.98,1.84,1.97,0,1.35-1.23,2.58-5.16,5.16.25,1.6.37,3.19.49,4.79,2.46-3.44,3.93-4.67,5.53-4.67,1.11,0,1.72.62,1.72,1.72,0,1.96-2.21,3.32-7.13,4.3.12.74.12,1.35.12,2.09,2.09.61,3.69,2.46,3.69,4.67,0,2.33-1.6,4.3-3.69,4.79,0,.62,0,1.1-.12,1.72,4.92,1.1,7.13,2.46,7.13,4.42Zm-16.46-14.99c0-.86.62-1.47,1.47-1.47s1.47.61,1.47,1.47-.62,1.47-1.47,1.47-1.47-.62-1.47-1.47Zm0,8.11c0-.86.62-1.47,1.47-1.47s1.47.61,1.47,1.47-.62,1.48-1.47,1.48-1.47-.62-1.47-1.48Zm16.71-8.11c0,.86-.61,1.47-1.47,1.47s-1.47-.62-1.47-1.47.61-1.47,1.47-1.47,1.47.61,1.47,1.47Zm0,8.11c0,.86-.61,1.48-1.47,1.48s-1.47-.62-1.47-1.48.61-1.47,1.47-1.47,1.47.61,1.47,1.47Z"/>
      <path class="cls-1" d="m209.09,85.63l40.91-29.98c11.92-8.72,14.5-15.61,14.5-28.51,0-14.5-6.51-23.71-23.1-23.71-9.95,0-19.66,4.42-19.66,7.74,0,.86.49,1.23,1.47,1.35,7.37.86,12.53,5.65,12.53,12.29,0,6.26-4.91,12.41-13.27,12.41s-13.88-5.9-13.88-13.88C208.59,8.35,225.67.12,248.15.12c27.89,0,43.37,8.35,43.37,22.11,0,9.71-8.48,17.32-25.19,27.4-8.11,4.92-14.25,8.85-26.66,17.69h34.53c9.09,0,12.29-1.97,14.87-13.27l1.23-5.28h2.21v37.84h-83.42v-.98Zm23.71-60.82c0-4.92-3.81-8.6-9.09-9.21-3.32-.37-4.55-1.97-4.55-4.06,0-.49.24-1.47.74-2.58l-.12-.12c-6.14,4.55-8.23,9.46-8.23,14.5,0,6.14,4.79,10.93,10.94,10.93,5.77,0,10.32-4.18,10.32-9.46Zm-13.02,3.81c0-.86.49-1.6,1.23-2.09v-6.39c-2.83,3.93-3.93,4.67-5.04,4.67s-1.72-.86-1.72-1.72c0-1.72,1.6-2.83,6.76-4.92h2.09c5.28,2.09,6.88,3.32,6.88,4.92,0,.86-.61,1.72-1.72,1.72-1.35,0-2.33-.98-5.04-4.67v6.39c.74.49,1.23,1.23,1.23,2.09,0,1.23-1.1,2.33-2.33,2.33s-2.33-1.11-2.33-2.33Zm-4.55-.74c0-.74.62-1.35,1.35-1.35s1.35.61,1.35,1.35-.62,1.35-1.35,1.35-1.35-.61-1.35-1.35Zm74.33,55.78v-21.87h-.12c-2.58,5.65-6.39,8.48-15.23,8.48h-38.7l-18.55,13.39h72.61Zm-63.28-55.78c0-.74.62-1.35,1.35-1.35s1.35.61,1.35,1.35-.62,1.35-1.35,1.35-1.35-.61-1.35-1.35Zm13.39,53.08c0-.98,1.72-2.09,3.07-2.95h-4.05c-.49.74-1.23,1.23-2.09,1.23-1.35,0-2.46-.98-2.46-2.33s1.11-2.33,2.46-2.33c.86,0,1.6.49,2.09,1.23h3.81c-1.35-.86-2.83-1.97-2.83-2.83s.62-1.48,1.35-1.48c1.1,0,1.84.98,3.07,4.3h4.55c-1.35-.86-2.83-1.97-2.83-2.83s.62-1.48,1.35-1.48c1.11,0,1.84.98,3.07,4.3h4.42c.62-1.84,2.33-3.32,4.3-3.32s3.69,1.48,4.3,3.32h4.42c1.23-3.32,1.97-4.3,3.07-4.3.74,0,1.35.62,1.35,1.48s-1.47,1.96-2.83,2.83h4.55c1.23-3.32,1.96-4.3,3.07-4.3.74,0,1.35.62,1.35,1.48s-1.47,1.96-2.83,2.83h4.05c.37-.74,1.11-1.23,2.09-1.23,1.35,0,2.33.98,2.33,2.33s-.98,2.33-2.33,2.33c-.98,0-1.72-.49-2.09-1.23h-4.3c1.35.86,3.07,1.97,3.07,2.95s-.62,1.47-1.35,1.47c-1.23,0-1.97-.98-3.19-4.42h-4.67c1.35.86,3.07,1.97,3.07,2.95s-.61,1.47-1.35,1.47c-1.23,0-1.96-.98-3.19-4.42h-4.3c-.62,1.84-2.33,3.32-4.3,3.32s-3.69-1.48-4.3-3.32h-4.3c-1.23,3.44-1.96,4.42-3.19,4.42-.74,0-1.35-.49-1.35-1.47s1.72-2.09,3.07-2.95h-4.67c-1.23,3.44-1.97,4.42-3.19,4.42-.74,0-1.35-.49-1.35-1.47Zm11.67-7.86c0-.74.62-1.35,1.35-1.35s1.35.62,1.35,1.35-.61,1.35-1.35,1.35-1.35-.61-1.35-1.35Zm0,7.74c0-.74.62-1.35,1.35-1.35s1.35.61,1.35,1.35-.61,1.35-1.35,1.35-1.35-.62-1.35-1.35Zm14.38-33.66c11.67-7.62,22.61-15.73,22.61-25.06,0-11.18-12.78-18.06-35.38-19.54v.12c9.95,3.81,14.74,12.29,14.74,24.45,0,10.69-1.84,16.96-9.09,24.33l.24.25c2.33-1.72,4.79-3.2,6.88-4.55Zm-1.84,25.92c0-.74.62-1.35,1.35-1.35s1.35.62,1.35,1.35-.61,1.35-1.35,1.35-1.35-.61-1.35-1.35Zm0,7.74c0-.74.62-1.35,1.35-1.35s1.35.61,1.35,1.35-.61,1.35-1.35,1.35-1.35-.62-1.35-1.35Zm10.32-48.53c0-1.23.98-2.34,2.09-2.46.37-1.23.62-2.33.74-3.56-1.84,1.72-4.79,4.18-6.39,4.18-1.11,0-1.84-.74-1.84-1.72,0-1.6,1.96-2.7,8.48-4.55v-1.72c-7.25-1.72-9.46-2.82-9.46-4.91,0-.98.86-1.72,1.96-1.72,1.97,0,5.28,2.46,7.37,4.42-.24-1.23-.49-2.46-1.1-3.69h-.12c-1.35,0-2.46-1.11-2.46-2.46s1.11-2.46,2.46-2.46,2.46,1.11,2.46,2.46c0,.62-.25,1.11-.49,1.48.74,1.47,1.11,2.95,1.35,4.42,1.35-2.21,3.19-4.79,4.67-4.79,1.23,0,1.84.74,1.84,1.72,0,1.84-1.47,3.07-6.27,5.28v2.09c4.3,2.21,5.65,3.2,5.65,4.3,0,.86-.61,1.6-1.72,1.6-1.35,0-2.83-1.84-4.05-3.81-.25,1.35-.62,2.7-.98,4.18.49.37.74.98.74,1.72,0,1.35-1.1,2.46-2.46,2.46s-2.46-1.11-2.46-2.46Zm-4.79-9.09c0-.86.62-1.47,1.47-1.47s1.47.62,1.47,1.47-.62,1.47-1.47,1.47-1.47-.62-1.47-1.47Zm14.13,0c0-.86.61-1.47,1.47-1.47s1.47.62,1.47,1.47-.61,1.47-1.47,1.47-1.47-.62-1.47-1.47Z"/>
      <path class="cls-1" d="m311.54,64.01c0-7.74,5.65-13.39,13.39-13.39,7,0,12.78,5.28,12.78,12.29,0,6.51-3.93,10.56-10.32,12.04-.98.24-1.47.74-1.47,1.6,0,3.69,9.34,8.97,22.36,8.97,14.62,0,24.7-7.74,24.7-20.88s-6.39-20.89-21.75-20.89h-7.13v-3.19h6.39c15.11,0,18.92-8.35,18.92-19.66,0-10.57-7.37-17.82-21.87-17.82s-21.38,4.18-21.38,6.88c0,.74.49,1.11,1.84,1.6,6.51,2.21,9.46,6.88,9.46,11.67,0,6.76-5.65,10.94-12.41,10.94-7.13,0-12.53-5.41-12.53-12.53,0-13.02,14.25-21.5,38.7-21.5,26.54,0,43.25,8.23,43.25,21.5,0,11.67-10.69,17.08-30.96,20.27v.25c21.63,2.46,36.49,7.86,36.49,21.63,0,15.6-19.29,24.94-47.92,24.94-24.57,0-40.54-9.34-40.54-24.7Zm13.52,16.34c-1.23-1.23-2.09-2.46-2.09-3.81,0-2.21,1.47-3.93,3.81-4.42,5.16-1.11,7.99-4.3,7.99-9.46s-4.42-9.09-9.83-9.09c-6.14,0-10.44,4.3-10.44,10.44,0,6.76,3.69,12.29,10.44,16.46l.12-.12Zm9.34-57.38c0-4.3-2.58-7.62-8.35-9.09-1.96-.49-2.83-1.72-2.83-3.44,0-.86.37-1.6.74-2.33h-.12c-5.41,3.81-8.35,8.23-8.35,13.51s4.05,9.58,9.58,9.58,9.34-3.44,9.34-8.23Zm-17.69,41.16c0-.86.61-1.72,1.72-1.72s2.21,1.23,5.04,5.28v-5.9c-.74-.49-1.23-1.23-1.23-2.09,0-1.23,1.1-2.33,2.33-2.33s2.33,1.11,2.33,2.33c0,.86-.49,1.6-1.23,2.09v5.9c2.46-3.69,3.69-5.28,5.04-5.28,1.11,0,1.72.86,1.72,1.72,0,1.48-2.21,3.69-6.88,5.53h-2.09c-4.67-1.84-6.76-4.05-6.76-5.53Zm5.9-38.33c0-.86.49-1.6,1.23-1.97v-5.9c-3.07,4.3-4.05,5.04-5.16,5.04-.98,0-1.6-.74-1.6-1.6,0-1.47,1.84-2.83,6.63-4.79h2.09c4.91,1.96,6.76,3.32,6.76,4.79,0,.86-.61,1.6-1.6,1.6-1.23,0-2.33-.98-5.16-5.04v5.9c.74.37,1.23,1.11,1.23,1.97,0,1.23-.98,2.21-2.21,2.21s-2.21-.98-2.21-2.21Zm-4.79,34.03c0-.74.62-1.35,1.35-1.35s1.35.62,1.35,1.35-.61,1.35-1.35,1.35-1.35-.62-1.35-1.35Zm.49-34.28c0-.74.49-1.23,1.23-1.23s1.23.49,1.23,1.23-.49,1.23-1.23,1.23-1.23-.49-1.23-1.23Zm10.32,34.28c0-.74.61-1.35,1.35-1.35s1.35.62,1.35,1.35-.62,1.35-1.35,1.35-1.35-.62-1.35-1.35Zm.24-34.28c0-.74.49-1.23,1.23-1.23s1.23.49,1.23,1.23-.49,1.23-1.23,1.23-1.23-.49-1.23-1.23Zm62.41-3.93c0-9.58-11.18-16.46-30.1-18.55l-.12.12c7.49,3.44,11.55,9.58,11.55,17.69,0,8.72-2.58,14.74-7.86,18.43l.12.12c19.17-3.81,26.42-8.97,26.42-17.82Zm5.53,42.14c0-9.21-7.37-14.5-29.49-18.31l-.12.12c6.14,3.93,8.97,10.44,8.97,19.05,0,9.7-5.04,17.08-14.5,21.01v.12c22.12-2.33,35.14-10.44,35.14-21.99Zm-19.66-33.91c0-1.35,1.11-2.46,2.46-2.46.49-1.35.86-2.58,1.1-3.93-2.83,2.83-4.3,3.81-5.41,3.81s-1.84-.61-1.84-1.72c0-1.47,2.21-2.7,7.37-3.81v-1.72c-5.41-1.47-7.74-3.07-7.74-4.92,0-.98.74-1.47,1.72-1.47,1.47,0,4.18,2.33,5.77,4.18-.12-1.23-.49-2.46-.98-3.69-1.35,0-2.46-1.1-2.46-2.46s1.11-2.46,2.46-2.46,2.46,1.1,2.46,2.46c0,.61-.24,1.11-.61,1.6.74,1.48,1.1,2.95,1.35,4.42,1.1-1.72,2.46-3.56,3.56-3.56.98,0,1.47.62,1.47,1.48,0,1.35-1.47,2.58-4.79,4.05v2.21c4.05,1.6,5.9,2.95,5.9,4.55,0,.98-.61,1.72-1.84,1.72-1.1,0-2.33-1.23-4.3-4.42-.25,1.6-.62,3.07-1.35,4.55.37.49.61.98.61,1.6,0,1.35-1.1,2.46-2.46,2.46s-2.46-1.11-2.46-2.46Zm-3.44-9.09c0-.86.62-1.47,1.47-1.47s1.47.61,1.47,1.47-.62,1.47-1.47,1.47-1.47-.62-1.47-1.47Zm8.85,51.6c0-1.23.98-2.33,2.09-2.46.37-1.11.61-2.33.74-3.56-3.32,3.32-4.79,4.3-6.51,4.3-1.1,0-1.84-.86-1.84-1.84,0-1.6,1.97-2.58,8.6-4.55v-1.84c-6.14-2.21-8.35-3.56-8.35-4.79,0-.98.74-1.72,1.72-1.72,1.72,0,4.67,2.46,6.51,4.3-.25-1.1-.37-2.33-.74-3.56-1.23-.12-2.21-1.23-2.21-2.46,0-1.35,1.11-2.46,2.46-2.46s2.46,1.1,2.46,2.46c0,.74-.25,1.35-.74,1.72.37,1.47.74,2.83.86,4.18,1.23-1.97,2.83-4.18,4.18-4.18,1.11,0,1.72.74,1.72,1.6,0,1.6-1.47,2.95-5.65,4.79v2.09c4.91,1.97,6.39,3.07,6.39,4.79,0,.98-.74,1.84-1.84,1.84-1.35,0-2.46-.98-4.79-4.3-.12,1.23-.49,2.58-.86,3.93.49.37.74.98.74,1.72,0,1.35-1.11,2.46-2.46,2.46s-2.46-1.11-2.46-2.46Zm-4.79-9.09c0-.86.61-1.47,1.47-1.47s1.47.61,1.47,1.47-.61,1.48-1.47,1.48-1.47-.62-1.47-1.48Zm9.34-42.51c0-.86.62-1.47,1.47-1.47s1.47.61,1.47,1.47-.62,1.47-1.47,1.47-1.47-.62-1.47-1.47Zm4.79,42.51c0-.86.62-1.47,1.47-1.47s1.47.61,1.47,1.47-.62,1.48-1.47,1.48-1.47-.62-1.47-1.48Z"/>
    </g>
  </g>
</svg>