<?xml version="1.0" encoding="UTF-8"?>
<svg id="_レイヤー_2" data-name="レイヤー 2" xmlns="http://www.w3.org/2000/svg" viewBox="0 0 400 88.71">
  <defs>
    <style>
      .cls-1 {
        fill: #868454;
        stroke-width: 0px;
      }
    </style>
  </defs>
  <g id="_レイヤー_1-2" data-name="レイヤー 1">
    <g>
      <path class="cls-1" d="m.49,85.63l40.91-29.98c11.92-8.72,14.5-15.61,14.5-28.51,0-14.5-6.51-23.71-23.1-23.71-9.95,0-19.66,4.42-19.66,7.74,0,.86.49,1.23,1.47,1.35,7.37.86,12.53,5.65,12.53,12.29,0,6.26-4.91,12.41-13.27,12.41S0,31.33,0,23.34C0,8.35,17.08.12,39.56.12c27.89,0,43.37,8.35,43.37,22.11,0,9.71-8.48,17.32-25.19,27.4-8.11,4.92-14.25,8.85-26.66,17.69h34.52c9.09,0,12.29-1.97,14.87-13.27l1.23-5.28h2.21v37.84H.49v-.98Z"/>
      <path class="cls-1" d="m102.33,44.23C102.33,17.45,121.87,0,149.63,0s47.3,17.45,47.3,44.23-19.29,44.23-47.3,44.23-47.3-17.69-47.3-44.23Zm67.33,0c0-23.96-1.47-41.28-20.03-41.28s-20.03,17.32-20.03,41.28,1.6,41.28,20.03,41.28,20.03-16.83,20.03-41.28Z"/>
      <path class="cls-1" d="m209.09,85.63l40.91-29.98c11.92-8.72,14.5-15.61,14.5-28.51,0-14.5-6.51-23.71-23.1-23.71-9.95,0-19.66,4.42-19.66,7.74,0,.86.49,1.23,1.47,1.35,7.37.86,12.53,5.65,12.53,12.29,0,6.26-4.91,12.41-13.27,12.41s-13.88-5.9-13.88-13.88C208.59,8.35,225.67.12,248.15.12c27.89,0,43.37,8.35,43.37,22.11,0,9.71-8.48,17.32-25.19,27.4-8.11,4.92-14.25,8.85-26.66,17.69h34.53c9.09,0,12.29-1.97,14.87-13.27l1.23-5.28h2.21v37.84h-83.42v-.98Z"/>
      <path class="cls-1" d="m311.54,64.01c0-7.74,5.65-13.39,13.39-13.39,7,0,12.78,5.28,12.78,12.29,0,6.51-3.93,10.56-10.32,12.04-.98.24-1.47.74-1.47,1.6,0,3.69,9.34,8.97,22.36,8.97,14.62,0,24.7-7.74,24.7-20.88s-6.39-20.89-21.75-20.89h-7.13v-3.19h6.39c15.11,0,18.92-8.35,18.92-19.66,0-10.57-7.37-17.82-21.87-17.82s-21.38,4.18-21.38,6.88c0,.74.49,1.11,1.84,1.6,6.51,2.21,9.46,6.88,9.46,11.67,0,6.76-5.65,10.94-12.41,10.94-7.13,0-12.53-5.41-12.53-12.53,0-13.02,14.25-21.5,38.7-21.5,26.54,0,43.25,8.23,43.25,21.5,0,11.67-10.69,17.08-30.96,20.27v.25c21.63,2.46,36.49,7.86,36.49,21.63,0,15.6-19.29,24.94-47.92,24.94-24.57,0-40.54-9.34-40.54-24.7Z"/>
    </g>
  </g>
</svg>