<?xml version="1.0" encoding="UTF-8"?>
<svg id="_レイヤー_2" data-name="レイヤー 2" xmlns="http://www.w3.org/2000/svg" viewBox="0 0 400 35.18">
  <defs>
    <style>
      .cls-1 {
        stroke-width: 0px;
      }
    </style>
  </defs>
  <g id="_レイヤー_1-2" data-name="レイヤー 1">
    <g>
      <path class="cls-1" d="m0,17.66C0,7.02,9.29.29,20.23.29c7.94,0,10.79,2.86,12.05,2.86.68,0,2.23-.92,4.55-2.9h.68v13.69h-.87c-2.32-7.45-7.6-12.49-14.91-12.49-8.37,0-11.03,7.11-11.03,16.74s3.87,15.49,12.34,15.49c4.11,0,6.92-1.11,9.24-2.76,2.42-1.69,4.21-4.07,4.94-7.84h1.26c-.73,4.26-2.66,6.97-5.37,8.86-2.71,1.93-6.34,3.24-11.52,3.24C9.68,35.18,0,29.33,0,17.66Zm18.39,16.36c-6.19-1.89-8.95-7.98-8.95-15.82s1.69-13.98,6.77-16.5l-.05-.05C6.77,3.58,1.26,9.68,1.26,17.66c0,8.9,6.68,15.29,17.13,16.4v-.05ZM3.39,17.91l1.89-1.89,1.89,1.89-1.89,1.89-1.89-1.89Zm6.58-12.87l.39.34c-2.66,3.39-3.48,5.37-4.11,8.9h-1.35c.68-3.82,2.03-6.39,5.08-9.24Zm-5.03,16.7h1.26c.53,3.29,1.84,5.81,4.65,8.42l-.34.34c-3.05-1.98-4.94-5.13-5.56-8.76Zm31.41-11.23V1.84c-2.08,1.69-3.14,2.56-4.36,2.37l-.05.05c1.89,1.69,3.29,3.58,4.36,6.24h.05Z"/>
      <path class="cls-1" d="m41.85,33.49l2.08-.48c4.45-1.02,5.23-2.27,5.23-5.86V8.23c0-3.58-.77-4.84-5.23-5.86l-2.08-.48v-.87h24.29v.87l-2.08.53c-3.97.97-4.74,2.23-4.74,5.81v8.13h17.57v-8.13c0-3.58-.77-4.84-4.74-5.81l-2.08-.53v-.87h24.29v.87l-2.08.48c-4.45,1.02-5.23,2.27-5.23,5.86v18.92c0,3.58.77,4.84,5.23,5.86l2.08.48v.87h-24.29v-.87l2.08-.53c3.97-.97,4.74-2.23,4.74-5.81v-9.44h-17.57v9.44c0,3.58.77,4.84,4.74,5.81l2.08.53v.87h-24.29v-.87Zm19.5-.29v-.05c-2.47-1.11-3.29-2.81-3.29-6V8.23c0-3.19.82-4.94,3.29-6v-.05h-14.32v.05c2.56,1.11,3.39,2.76,3.39,6v18.92c0,3.24-.87,4.94-3.53,6v.05h14.47Zm-9-15.68l1.89-1.89,1.89,1.89-1.89,1.89-1.89-1.89Zm1.31-13.02h1.16v9.29h-1.16V4.5Zm0,16.74h1.16v9.63h-1.16v-9.63Zm35.62,11.95v-.05c-2.61-1.06-3.48-2.81-3.48-6V8.23c0-3.24.87-4.89,3.48-6v-.05h-14.42v.05c2.47,1.11,3.29,2.81,3.29,6v18.92c0,3.24-.77,4.89-3.24,6v.05h14.37Zm-9.19-15.68l1.89-1.89,1.89,1.89-1.89,1.89-1.89-1.89Zm1.31-13.02h1.16v9.29h-1.16V4.5Zm0,16.74h1.16v9.63h-1.16v-9.63Z"/>
      <path class="cls-1" d="m97.74,33.49l2.08-.48c4.45-1.02,5.23-2.27,5.23-5.86V8.23c0-3.58-.77-4.84-5.23-5.86l-2.08-.48v-.87h26.13c4.6,0,9.15.43,12.24,2.08,2.81,1.5,4.4,3.82,4.4,6.77,0,3.44-1.79,5.52-4.6,6.87-3.1,1.5-7.45,2.37-12.05,2.37h-.82c2.42,1.55,4.89,2.27,7.45,2.27,1.21,0,2.42-.14,3.68-.48l4.4,7.69c1.6,2.81,2.56,4.07,5.32,4.69l.82.19v.87h-14.37l-8.71-15.24h-6.44v8.03c0,3.58.77,4.84,5.23,5.86l2.08.48v.87h-24.78v-.87Zm19.55-.29v-.05c-2.81-1.11-3.34-2.76-3.34-6V2.18h-11.37v.05c2.9,1.06,3.73,2.76,3.73,6v18.92c0,3.24-.53,4.89-3.34,6v.05h14.32Zm-9.05-15.68l1.89-1.89,1.89,1.89-1.89,1.89-1.89-1.89Zm1.31-13.02h1.16v9.29h-1.16V4.5Zm0,16.74h1.16v9.63h-1.16v-9.63Zm11.9-3.29c5.52,0,8.66-2.56,8.66-8.08s-3.15-7.69-8.66-7.69h-6.24v15.78h6.24Zm19.45,15.24v-.05c-1.31-.82-2.23-1.98-3.34-3.97l-3.97-6.92c-1.02.19-2.03.29-3.1.29-2.18,0-4.31-.48-6.44-1.6l-.05.05,7.02,12.19h9.87Zm-5.47-17.52c2.71-1.31,3.82-3.1,3.82-5.81,0-2.47-1.16-4.36-3.68-5.76-1.84-1.02-4.5-1.74-8.61-2.03l-.05.05c3.1,1.5,4.45,4.11,4.45,7.74s-1.45,6.44-4.65,8.03l.05.05c3.68-.44,6.44-1.21,8.66-2.27Zm-5.57,8.71h1.21c2.66,4.69,2.95,5.37,3.82,6.48h-1.4c-.48-.73-.97-1.65-3.63-6.48Zm2.13-9.19c1.84-1.6,2.81-3.39,2.81-5.32s-.87-3.39-2.42-4.98l.43-.39c1.89,1.5,3.15,3.29,3.15,5.37,0,2.37-1.45,4.31-3.53,5.76l-.43-.44Z"/>
      <path class="cls-1" d="m146.65,33.49l2.08-.48c4.45-1.02,5.23-2.27,5.23-5.86V8.23c0-3.58-.77-4.84-5.23-5.86l-2.08-.48v-.87h24.78v.87l-2.08.48c-4.45,1.02-5.23,2.27-5.23,5.86v18.92c0,3.58.77,4.84,5.23,5.86l2.08.48v.87h-24.78v-.87Zm19.5-.29v-.05c-2.47-1.11-3.29-2.81-3.29-6V8.23c0-3.19.77-4.89,3.29-6v-.05h-14.32v.05c2.56,1.11,3.39,2.76,3.39,6v18.92c0,3.24-.87,4.94-3.53,6v.05h14.47Zm-9-15.68l1.89-1.89,1.89,1.89-1.89,1.89-1.89-1.89Zm1.31-13.02h1.16v9.29h-1.16V4.5Zm0,16.74h1.16v9.63h-1.16v-9.63Z"/>
      <path class="cls-1" d="m182.27,32.18c-1.11,0-2.66,1.16-4.5,2.95h-.68v-12.73h.82c1.45,3.77,3.19,7.02,6.05,8.76,3.29,1.98,6.82,2.85,10.06,2.85,4.98,0,10.21-1.65,10.21-5.47,0-2.37-1.5-4.26-5.47-4.98l-10.6-1.94c-7.26-1.35-11.18-5.08-11.18-10.65,0-7.06,7.02-10.69,15.78-10.69,6.68,0,10.45,2.86,11.32,2.86s2.32-.97,4.5-2.9h.68v12.24h-.82c-1.45-3.77-3.19-6.53-6-8.37-2.85-1.89-6.39-2.66-9.63-2.66-4.65,0-8.95,1.4-8.95,5.37,0,2.9,2.61,3.97,6.24,4.65l10.6,1.94c7.02,1.26,10.4,4.94,10.4,10.36,0,6.73-7.55,11.42-16.94,11.42-6.44,0-11.08-3-11.9-3Zm-4.07,1.35c1.55-1.5,2.66-2.27,3.82-2.47v-.05c-1.55-1.26-2.85-2.76-3.82-5.32h-.05v7.84h.05Zm31.65-9.77c0-4.98-3.05-8.08-9.34-9.19l-10.6-1.93c-4.98-.97-7.31-2.66-7.31-5.81,0-1.6.63-2.95,2.08-4.16l-.05-.05c-4.31,1.6-6.39,4.79-6.39,8.37,0,4.94,3.39,8.23,10.11,9.48l10.6,1.94c4.5.82,6.48,3.1,6.48,5.81,0,1.35-.58,2.76-1.89,4.11l.05.05c4.06-2.08,6.24-5.23,6.24-8.61Zm-20.81-6.63c-5.23-.97-8.81-3.58-8.86-7.65,0-.34.05-.68.1-1.02h.48c.24,4.55,3.34,6.53,8.47,7.5l1.5.29-.19,1.16-1.5-.29Zm3.44.15l2.23-1.5,1.5,2.18-2.18,1.55-1.55-2.23Zm14.61,9.44c.1-4.5-2.56-6.77-7.45-7.65l-1.79-.34.19-1.16,1.79.34c4.89.92,7.94,3.24,7.94,7.31,0,.63-.05,1.31-.19,1.98h-.48v-.48Zm1.11-17.23V1.84h-.05c-1.4,1.31-2.61,2.13-3.92,2.23v.05c1.69,1.26,2.86,2.85,3.92,5.37h.05Z"/>
      <path class="cls-1" d="m223.1,33.49l2.56-.48c4.5-.82,5.13-2.27,5.13-5.86V2.18h-2.9c-4.94,0-7.5,3.15-10.5,9.1l-1.55,3.1h-.87V1.02h42.15v13.36h-.87l-1.55-3.1c-3-5.95-5.56-9.1-10.5-9.1h-3.05v24.97c0,3.58.63,5.03,5.13,5.86l2.56.48v.87h-25.74v-.87Zm-6.92-22.36c2.66-5.28,4.26-7.55,6.77-8.9v-.05h-6.82v8.95h.05Zm26.76,22.07v-.05c-2.27-1.06-2.95-2.81-2.95-6V2.18h-8.03v24.97c0,3.19-.68,4.94-2.95,6v.05h13.94Zm-8.86-15.68l1.89-1.89,1.89,1.89-1.89,1.89-1.89-1.89Zm1.31-13.02h1.16v9.29h-1.16V4.5Zm0,16.74h1.16v9.63h-1.16v-9.63Zm20.57-10.11V2.18h-6.82v.05c2.52,1.36,4.11,3.63,6.77,8.9h.05Z"/>
      <path class="cls-1" d="m268.92,7.99v16.31c0,4.79,2.13,6.82,5.42,8.28l2.08.92v.87h-16.16v-.87l1.98-.92c3.34-1.55,5.47-3.48,5.47-8.28V6.15c-1.35-1.74-3.34-3.29-5.42-3.77l-2.03-.48v-.87h16.21l12.63,21.63,9.68-21.63h17.47v.87l-2.08.48c-4.45,1.02-5.23,2.27-5.23,5.86v18.92c0,3.58.77,4.84,5.23,5.86l2.08.48v.87h-24.78v-.87l2.08-.48c4.45-1.02,5.23-2.27,5.23-5.86V3.92l-13.65,30.83h-.77l-15.44-26.76Zm4.26,25.21v-.05c-2.61-1.26-4.11-2.85-4.79-5.52h-.1c-.73,2.61-2.23,4.16-4.84,5.52v.05h9.73Zm15.39-9.15l-12.78-21.87h-11.42v.05c2.71,1.11,4.06,2.66,5.23,4.6l15.05,26.08,3.92-8.86Zm-16.6-19.55h1.31l4.02,6.82-.97.58-4.36-7.4Zm5.27,11.71l.73-2.61,2.56.73-.68,2.56-2.61-.68Zm3.29,2.95l.97-.58,3.97,6.73-.58,1.31-4.36-7.45Zm30.68,14.03v-.05c-2.66-1.06-3.44-2.76-3.44-6V8.23c0-3.24.77-4.94,3.34-6v-.05h-11.18v24.97c0,3.24-.77,4.94-3.44,6v.05h14.71Zm-9.24-15.68l1.89-1.89,1.89,1.89-1.89,1.89-1.89-1.89Zm1.31-13.02h1.16v9.29h-1.16V4.5Zm0,16.74h1.16v9.63h-1.16v-9.63Z"/>
      <path class="cls-1" d="m317.45,33.49l.82-.19c3-.73,4.79-3.63,7.06-7.89l13.55-25.41h.68l17.47,29.95c1.26,2.23,2.81,3,4.74,3.39l.73.14v.87h-22.36v-.87l1.79-.34c2.32-.43,3.53-1.16,3.53-2.47,0-.68-.29-1.45-.82-2.37l-2.18-3.73h-15.29l-.1.19c-.53,1.02-.97,2.52-.97,3.63,0,2.37,1.5,4.07,4.36,4.74l1.4.34v.87h-14.42v-.87Zm10.21-.29v-.05c-1.69-1.06-2.61-2.61-2.61-4.89h-.05c-1.26,2.23-2.42,3.77-4.02,4.89v.05h6.68Zm14.13-9.77l-7.36-12.58-6.63,12.58h13.98Zm16.65,9.77v-.05c-1.06-.63-1.79-1.55-2.47-2.61l-16.74-28.74-4.16,7.84,10.65,18.1c.63,1.11.97,2.08.97,2.95,0,1.02-.43,1.84-1.5,2.47v.05h13.26Zm-20.32-24.78l.63-1.21,4.79,8.37-.97.58-4.45-7.74Zm5.42,12.05l.73-2.61,2.56.73-.68,2.56-2.61-.68Zm3.29,2.95l.97-.58,4.69,8.03h-1.35l-4.31-7.45Z"/>
      <path class="cls-1" d="m371.16,32.18c-1.11,0-2.66,1.16-4.5,2.95h-.68v-12.73h.82c1.45,3.77,3.19,7.02,6.05,8.76,3.29,1.98,6.82,2.85,10.06,2.85,4.98,0,10.21-1.65,10.21-5.47,0-2.37-1.5-4.26-5.47-4.98l-10.6-1.94c-7.26-1.35-11.18-5.08-11.18-10.65,0-7.06,7.02-10.69,15.78-10.69,6.68,0,10.45,2.86,11.32,2.86s2.32-.97,4.5-2.9h.68v12.24h-.82c-1.45-3.77-3.19-6.53-6-8.37-2.85-1.89-6.39-2.66-9.63-2.66-4.65,0-8.95,1.4-8.95,5.37,0,2.9,2.61,3.97,6.24,4.65l10.6,1.94c7.02,1.26,10.4,4.94,10.4,10.36,0,6.73-7.55,11.42-16.94,11.42-6.44,0-11.08-3-11.9-3Zm-4.07,1.35c1.55-1.5,2.66-2.27,3.82-2.47v-.05c-1.55-1.26-2.85-2.76-3.82-5.32h-.05v7.84h.05Zm31.65-9.77c0-4.98-3.05-8.08-9.34-9.19l-10.6-1.93c-4.98-.97-7.31-2.66-7.31-5.81,0-1.6.63-2.95,2.08-4.16l-.05-.05c-4.31,1.6-6.39,4.79-6.39,8.37,0,4.94,3.39,8.23,10.11,9.48l10.6,1.94c4.5.82,6.48,3.1,6.48,5.81,0,1.35-.58,2.76-1.89,4.11l.05.05c4.06-2.08,6.24-5.23,6.24-8.61Zm-20.81-6.63c-5.23-.97-8.81-3.58-8.86-7.65,0-.34.05-.68.1-1.02h.48c.24,4.55,3.34,6.53,8.47,7.5l1.5.29-.19,1.16-1.5-.29Zm3.44.15l2.23-1.5,1.5,2.18-2.18,1.55-1.55-2.23Zm14.61,9.44c.1-4.5-2.56-6.77-7.45-7.65l-1.79-.34.19-1.16,1.79.34c4.89.92,7.94,3.24,7.94,7.31,0,.63-.05,1.31-.19,1.98h-.48v-.48Zm1.11-17.23V1.84h-.05c-1.4,1.31-2.61,2.13-3.92,2.23v.05c1.69,1.26,2.86,2.85,3.92,5.37h.05Z"/>
    </g>
  </g>
</svg>