<?xml version="1.0" encoding="UTF-8"?>
<svg id="_レイヤー_2" data-name="レイヤー 2" xmlns="http://www.w3.org/2000/svg" viewBox="0 0 400 60.01">
  <defs>
    <style>
      .cls-1 {
        fill: #8a0f0a;
        stroke-width: 0px;
      }
    </style>
  </defs>
  <g id="_レイヤー_1-2" data-name="レイヤー 1">
    <g>
      <path class="cls-1" d="m0,58.49l3.64-.84c7.78-1.78,9.13-3.97,9.13-10.23V14.37c0-6.26-1.35-8.45-9.13-10.23l-3.64-.85v-1.52h42.43v1.52l-3.64.93c-6.93,1.69-8.28,3.89-8.28,10.14v14.2h30.68v-14.2c0-6.26-1.35-8.45-8.28-10.14l-3.63-.93v-1.52h42.43v1.52l-3.63.85c-7.78,1.77-9.13,3.97-9.13,10.23v33.05c0,6.25,1.35,8.45,9.13,10.23l3.63.84v1.52h-42.43v-1.52l3.63-.93c6.93-1.69,8.28-3.89,8.28-10.14v-16.48h-30.68v16.48c0,6.25,1.35,8.45,8.28,10.14l3.64.93v1.52H0v-1.52Z"/>
      <path class="cls-1" d="m93.81,58.49l1.44-.34c5.24-1.27,8.37-6.34,12.34-13.78L131.25,0h1.18l30.51,52.32c2.2,3.89,4.9,5.24,8.28,5.92l1.27.25v1.52h-39.05v-1.52l3.13-.59c4.06-.76,6.17-2.03,6.17-4.31,0-1.18-.51-2.54-1.44-4.14l-3.8-6.51h-26.71l-.17.34c-.93,1.78-1.69,4.4-1.69,6.34,0,4.14,2.62,7.1,7.61,8.28l2.45.59v1.52h-25.19v-1.52Zm42.51-17.58l-12.85-21.98-11.58,21.98h24.43Z"/>
      <path class="cls-1" d="m174.6,58.49l3.64-.84c7.78-1.78,9.13-3.97,9.13-10.23V14.37c0-6.26-1.35-8.45-9.13-10.23l-3.64-.85v-1.52h43.78c8.03,0,15.98.76,21.38,3.64,4.9,2.62,7.69,6.68,7.69,11.83,0,6-3.13,10.48-8.03,12.85-5.41,2.62-13.02,4.14-21.05,4.14h-13.27v13.19c0,6.25,1.27,8.79,9.13,10.23l4.48.84v1.52h-44.12v-1.52Zm39.56-26.46c9.63,0,15.13-5.16,15.13-14.79s-5.5-13.27-15.13-13.27h-9.04v28.06h9.04Z"/>
      <path class="cls-1" d="m252.94,58.49l3.63-.84c7.78-1.78,9.13-3.97,9.13-10.23V14.37c0-6.26-1.35-8.45-9.13-10.23l-3.63-.85v-1.52h43.78c8.03,0,15.98.76,21.38,3.64,4.9,2.62,7.69,6.68,7.69,11.83,0,6-3.13,10.48-8.03,12.85-5.41,2.62-13.02,4.14-21.05,4.14h-13.27v13.19c0,6.25,1.27,8.79,9.13,10.23l4.48.84v1.52h-44.12v-1.52Zm39.56-26.46c9.63,0,15.13-5.16,15.13-14.79s-5.49-13.27-15.13-13.27h-9.04v28.06h9.04Z"/>
      <path class="cls-1" d="m344.72,58.49l3.63-.84c7.78-1.78,9.13-3.97,9.13-10.23v-8.79l-19.86-28.15c-2.87-4.06-4.65-5.75-8.87-6.85l-1.27-.34v-1.52h39.81v1.52l-3.13.59c-4.06.76-6.17,2.03-6.17,4.31,0,1.18.51,2.45,1.61,4.06l14.28,20.54,8.71-14.29c1.94-3.13,2.62-5.16,2.62-7.27,0-3.55-2.37-6.09-7.61-7.36l-2.45-.59v-1.52h24.85v1.52l-1.35.34c-4.06,1.01-7.69,5.07-12.93,13.78l-10.48,17.33v12.68c0,6.25,1.35,8.45,9.13,10.23l3.63.84v1.52h-43.28v-1.52Z"/>
    </g>
  </g>
</svg>