<?xml version="1.0" encoding="UTF-8"?>
<svg id="_レイヤー_2" data-name="レイヤー 2" xmlns="http://www.w3.org/2000/svg" viewBox="0 0 400 104.03">
  <defs>
    <style>
      .cls-1 {
        stroke-width: 0px;
      }
    </style>
  </defs>
  <g id="_レイヤー_1-2" data-name="レイヤー 1">
    <g>
      <path class="cls-1" d="m0,76.18c0-9.58,7.81-16.21,16.65-16.21,10.16,0,15.47,7.07,15.47,14.44s-6.34,14.29-16.06,14.88c-1.47.15-2.06.88-2.06,1.62,0,4.57,8.84,9.73,19.16,9.73,14.14,0,21.07-9.43,21.07-26.67V21.96c0-10.91-2.21-15.33-15.91-17.83l-7.81-1.48V0h76.92v2.65l-6.34,1.48c-13.55,3.09-15.91,6.92-15.91,17.83v43.46c0,25.05-25.34,38.61-50.83,38.61-17.98,0-34.33-10.76-34.33-27.85Zm11.34,16.94c-.15-.74-.44-1.77-.44-2.5,0-2.65,1.77-4.42,4.86-4.42h.15c7.37,0,12.67-5.75,12.67-11.79,0-6.49-4.72-10.91-11.93-10.91s-13.12,5.6-13.12,12.67c0,6.19,2.36,12.38,7.66,17.09l.15-.15Zm-4.71-17.09c0-1.03.73-1.91,1.91-1.91,1.48,0,2.8,1.18,6.19,6.04v-7.07c-.89-.44-1.47-1.33-1.47-2.36,0-1.48,1.18-2.65,2.65-2.65s2.65,1.18,2.65,2.65c0,1.03-.59,1.91-1.48,2.36v7.07c3.39-4.86,4.72-6.04,6.19-6.04,1.18,0,1.91.88,1.91,1.91,0,1.91-1.91,3.24-8.11,5.75h-2.5c-6.34-2.65-7.95-3.83-7.95-5.75Zm1.47-5.01c0-.89.59-1.47,1.47-1.47s1.48.59,1.48,1.47-.59,1.47-1.48,1.47-1.47-.59-1.47-1.47Zm12.67,0c0-.89.59-1.47,1.47-1.47s1.47.59,1.47,1.47-.59,1.47-1.47,1.47-1.47-.59-1.47-1.47Zm60.56-5.6V21.96c0-9.87,2.51-15.03,10.76-18.27v-.15h-43.62v.15c7.22,3.24,9.58,8.55,9.58,18.27v52.01c0,11.79-3.39,20.19-10.02,25.64v.15c20.33-5.01,33.3-17.83,33.3-34.33Zm-17.83,17.39c0-1.48,1.03-2.65,2.5-2.95.44-1.03.74-2.21,1.03-3.39-1.62,1.92-4.57,4.71-6.19,4.71-1.03,0-1.62-.59-1.62-1.62,0-2.51,4.27-4.42,8.25-5.31.44-1.77.59-3.68.73-5.6-1.91,2.8-5.3,6.04-7.22,6.04-.89,0-1.62-.88-1.62-2.06,0-1.62,2.65-3.69,8.84-6.48v-5.6c-1.77,2.65-4.42,6.19-6.63,6.19-1.33,0-2.21-1.03-2.21-2.21,0-1.77,2.36-3.53,8.84-6.04v-1.92c-2.5-.74-4.42-2.95-4.42-5.74s1.92-4.86,4.42-5.6v-1.92c-6.48-2.5-8.84-4.27-8.84-6.04,0-1.18.88-2.21,2.21-2.21,2.21,0,4.86,3.54,6.63,6.19v-6.78c-6.48-2.5-8.84-4.27-8.84-6.04,0-1.18.88-2.21,2.21-2.21,2.21,0,4.86,3.54,6.63,6.19v-6.78c-6.48-2.5-8.84-4.27-8.84-6.04,0-1.18.88-2.21,2.21-2.21,2.21,0,4.86,3.54,6.63,6.19v-7.81c-.88-.44-1.47-1.62-1.47-2.5,0-1.62,1.32-2.95,2.95-2.95s2.94,1.33,2.94,2.95c0,.89-.59,2.06-1.47,2.5v7.81c1.77-2.65,4.42-6.19,6.63-6.19,1.32,0,2.21,1.03,2.21,2.21,0,1.91-2.36,3.54-8.84,6.04v6.78c1.77-2.65,4.42-6.19,6.63-6.19,1.32,0,2.21,1.03,2.21,2.21,0,1.77-2.36,3.54-8.84,6.04v6.78c1.77-2.65,4.42-6.19,6.63-6.19,1.32,0,2.21,1.03,2.21,2.21,0,1.77-2.36,3.54-8.84,6.04v1.92c2.36.73,4.27,2.94,4.27,5.6s-1.92,5.01-4.27,5.74v1.92c6.49,2.5,8.84,4.27,8.84,6.04,0,1.18-.89,2.21-2.21,2.21-2.21,0-4.86-3.53-6.63-6.19v5.6c4.27,1.91,7.66,5.16,7.66,7.22,0,1.18-.59,2.06-1.92,2.06-1.62,0-4.12-3.53-5.74-7.07-.15,2.21-.29,4.27-.59,6.19,2.06,1.48,4.57,4.27,4.57,6.19,0,.88-.74,1.47-1.62,1.47-1.47,0-2.65-2.95-3.39-5.16l-1.32,3.98c.29.44.59,1.03.59,1.77,0,1.62-1.33,2.94-2.94,2.94s-2.95-1.32-2.95-2.94Zm-3.83-36.84c0-1.03.73-1.77,1.77-1.77s1.77.73,1.77,1.77-.74,1.77-1.77,1.77-1.77-.74-1.77-1.77Zm0,9.72c0-1.03.73-1.77,1.77-1.77s1.77.73,1.77,1.77-.74,1.77-1.77,1.77-1.77-.74-1.77-1.77Zm16.5-9.72c0-1.03.73-1.77,1.77-1.77s1.77.73,1.77,1.77-.74,1.77-1.77,1.77-1.77-.74-1.77-1.77Zm0,9.72c0-1.03.73-1.77,1.77-1.77s1.77.73,1.77,1.77-.74,1.77-1.77,1.77-1.77-.74-1.77-1.77Z"/>
      <path class="cls-1" d="m136.87,62.47V21.96c0-10.91-2.36-14.74-15.91-17.83l-6.34-1.48V0h75.44v2.65l-6.34,1.48c-13.55,3.09-15.91,6.92-15.91,17.83v45.67c0,23.57,9.87,31.98,26.81,31.98,19.01,0,33.6-12.67,33.6-29.91V29.91c0-14.59-6.04-20.78-16.5-24.9l-6.04-2.36V0h49.06v2.65l-6.33,2.36c-10.9,3.98-16.36,10.32-16.36,24.9v37.72c0,22.39-15.32,36.4-43.61,36.4-32.12,0-51.57-11.05-51.57-41.55Zm43.61,38.02c-11.49-5.3-16.21-16.5-16.21-32.86V21.96c0-9.87,2.36-15.03,10.31-18.27v-.15h-44.5v.15c7.95,3.39,10.31,8.4,10.31,18.27v40.52c0,23.28,11.79,35.22,39.93,38.16l.15-.15Zm-28-17.68c0-.74.3-1.33.59-1.77l-1.33-3.98c-.88,3.83-2.21,5.16-3.39,5.16-.88,0-1.62-.59-1.62-1.47,0-1.92,1.62-3.98,4.57-6.19-.29-1.91-.44-3.98-.59-6.19-1.77,4.12-4.12,7.07-5.75,7.07-1.03,0-1.91-.89-1.91-2.06,0-2.36,2.94-5.16,7.66-7.22v-5.6c-2.65,4.12-5.01,6.19-6.63,6.19-1.33,0-2.21-1.03-2.21-2.21,0-1.91,2.06-3.39,8.84-6.04v-1.92c-2.51-.74-4.42-2.95-4.42-5.74s1.91-4.86,4.42-5.6v-1.92c-6.78-2.65-8.84-4.13-8.84-6.04,0-1.18.88-2.21,2.21-2.21,1.62,0,3.98,2.06,6.63,6.19v-6.78c-6.78-2.65-8.84-4.13-8.84-6.04,0-1.18.88-2.21,2.21-2.21,1.62,0,3.98,2.06,6.63,6.19v-6.78c-7.07-2.8-8.84-3.98-8.84-6.04,0-1.18.88-2.21,2.21-2.21,1.62,0,4.12,2.36,6.63,6.19v-7.81c-.88-.44-1.48-1.47-1.48-2.5,0-1.62,1.33-2.95,2.95-2.95s2.95,1.33,2.95,2.95c0,1.03-.59,2.06-1.48,2.5v7.81c2.65-4.12,5.01-6.19,6.63-6.19,1.33,0,2.21,1.03,2.21,2.21,0,1.91-2.06,3.39-8.84,6.04v6.78c2.65-4.12,5.01-6.19,6.63-6.19,1.33,0,2.21,1.03,2.21,2.21,0,1.91-2.06,3.39-8.84,6.04v6.78c2.65-4.12,5.01-6.19,6.63-6.19,1.33,0,2.21,1.03,2.21,2.21,0,1.91-2.06,3.39-8.84,6.04v1.92c2.36.73,4.27,2.94,4.27,5.6s-1.92,5.01-4.27,5.74v1.92c6.78,2.65,8.84,4.12,8.84,6.04,0,1.18-.88,2.21-2.21,2.21-1.62,0-3.98-2.06-6.63-6.19v5.6c6.78,3.09,8.84,4.57,8.84,6.48,0,1.18-.73,2.06-1.62,2.06-2.06,0-4.57-2.06-7.22-6.04.15,1.92.3,3.83.74,5.6,5.45,1.18,8.25,3.1,8.25,5.31,0,1.03-.59,1.62-1.62,1.62-1.47,0-3.39-1.47-6.19-4.71.3,1.18.59,2.36,1.03,3.39,1.48.29,2.51,1.47,2.51,2.95,0,1.62-1.33,2.94-2.94,2.94s-2.95-1.32-2.95-2.94Zm-10.31-36.84c0-1.03.74-1.77,1.77-1.77s1.77.73,1.77,1.77-.74,1.77-1.77,1.77-1.77-.74-1.77-1.77Zm0,9.72c0-1.03.74-1.77,1.77-1.77s1.77.73,1.77,1.77-.74,1.77-1.77,1.77-1.77-.74-1.77-1.77Zm16.5-9.72c0-1.03.73-1.77,1.77-1.77s1.77.73,1.77,1.77-.74,1.77-1.77,1.77-1.77-.74-1.77-1.77Zm0,9.72c0-1.03.73-1.77,1.77-1.77s1.77.73,1.77,1.77-.74,1.77-1.77,1.77-1.77-.74-1.77-1.77Zm71.46-36.1c2.06-7.96,6.19-12.67,13.56-15.91v-.15h-27.26v.15c7.22,3.54,11.34,8.25,13.55,15.91h.15Z"/>
      <path class="cls-1" d="m290.97,22.84v48.77c0,14.59,6.78,21.95,18.12,24.9l9.28,2.36v2.65h-53.93v-2.65l6.04-2.36c10.46-4.13,16.65-10.31,16.65-24.9V19.3l-1.47-1.47c-5.6-5.6-10.76-11.49-18.71-13.7l-5.45-1.48V0h48.62l63.5,59.97v-30.06c0-14.59-6.48-21.96-17.83-24.9l-9.28-2.36V0h53.48v2.65l-6.04,2.36c-10.46,4.12-16.65,10.32-16.65,24.9v72.79h-2.36l-83.98-79.86Zm82.51,42.29L308.65,3.68l-35.36-.15v.15c6.78,3.1,10.9,7.37,14.88,11.2l85.31,81.34v-31.09Zm-70.13,32.86v-.15c-7.37-2.94-11.79-7.95-14.15-16.06h-.29c-2.06,7.81-6.34,12.52-13.7,16.06v.15h28.14Zm50.24-23.87c0-1.62.74-3.69,2.5-7.66l-5.16-4.86c.44,1.62,1.03,3.83,1.03,5.6,0,2.36-1.03,3.68-2.36,3.68-1.18,0-2.36-1.03-2.36-2.65,0-1.33.74-3.54,2.51-7.81l-5.16-5.01c.44,1.77.89,4.13.89,6.04,0,1.62-.44,3.39-2.06,3.39-1.32,0-2.5-1.03-2.5-2.65,0-.89.44-2.36,2.5-7.81l-4.57-4.42c.29,1.47.59,3.39.59,5.01,0,2.36-1.03,3.98-2.36,3.98-1.18,0-2.21-1.03-2.21-2.5,0-1.18.59-2.95,2.51-7.81l-1.33-1.18c-.73.44-1.62.73-2.65.73-3.24,0-6.04-2.65-6.04-5.89,0-.89.3-1.77.59-2.65l-1.32-1.33c-3.98,1.91-6.49,2.65-8.11,2.65-1.48,0-2.65-.74-2.65-2.21,0-1.62,1.92-2.21,3.83-2.21s3.98.44,5.75.74l-5.01-4.86c-4.71,2.21-6.63,2.8-8.1,2.8-1.92,0-2.65-1.18-2.65-2.06,0-1.77,2.21-2.5,4.42-2.5,1.62,0,3.54.29,5.01.59l-5.16-4.86c-3.68,1.47-6.78,2.5-7.96,2.5-1.47,0-2.65-.74-2.65-2.21s1.62-2.06,4.27-2.06c1.62,0,3.54.3,5.01.44l-4.86-4.72c-3.1,1.77-6.34,2.8-8.4,2.8-1.77,0-2.5-1.18-2.5-2.36,0-1.62,1.77-2.21,3.83-2.21,2.21,0,4.42.59,6.04.88l-3.54-3.24h-.59c-1.62,0-2.95-1.33-2.95-2.95s1.33-2.95,2.95-2.95,2.95,1.33,2.95,2.95c0,.29,0,.74-.15,1.03l2.8,2.65c-.29-1.62-.59-3.68-.59-5.3,0-2.65.73-3.98,2.21-3.98s2.06,1.03,2.06,2.5c0,1.33-.88,4.27-2.36,7.96l5.45,5.16c-.44-1.62-.88-3.98-.88-5.89,0-2.06.59-3.98,2.21-3.98,1.48,0,2.06,1.03,2.06,2.5,0,1.77-.88,4.86-2.36,8.4l5.45,5.16c-.29-1.77-.89-4.12-.89-6.04,0-2.06.59-3.68,2.21-3.68,1.48,0,2.06,1.32,2.06,2.8,0,1.62-.88,4.42-2.36,7.96l4.86,4.72c-.3-1.62-.59-3.69-.59-5.45,0-1.92.29-4.27,2.21-4.27,1.33,0,2.06,1.18,2.06,2.65,0,1.18-.59,3.09-2.51,8.11l1.48,1.33c.88-.59,2.06-1.03,3.24-1.03,3.09,0,5.74,2.5,5.74,5.6,0,1.18-.29,2.21-.89,3.1l1.03,1.03c3.98-1.92,6.48-2.8,8.25-2.8,1.33,0,2.65.74,2.65,2.06,0,1.77-1.77,2.5-3.83,2.5-1.91,0-4.42-.44-6.19-.88l5.45,5.16c4.42-1.91,7.07-2.8,8.25-2.8,1.77,0,2.51,1.03,2.51,1.91,0,1.92-2.94,2.65-5.45,2.65-1.33,0-2.51-.15-3.69-.3l4.57,4.42c3.98-1.91,6.48-2.8,8.11-2.8,1.91,0,2.65.89,2.65,2.06,0,1.77-2.36,2.5-4.86,2.5-1.48,0-3.1-.15-4.42-.44l4.86,4.57c4.57-1.92,6.92-2.65,8.4-2.65s2.21.74,2.21,1.62c0,1.77-1.77,2.5-4.27,2.5h-4.72l3.83,3.68.74-.15c1.62,0,2.94,1.33,2.94,2.95s-1.32,2.95-2.94,2.95-2.95-1.33-2.95-2.95v-.59l-3.83-3.68c.44,1.62.73,3.53.73,5.31,0,2.5-.88,3.68-2.21,3.68-1.18,0-2.36-1.03-2.36-2.65Zm-31.09-29.32c0-1.03.74-1.77,1.77-1.77s1.77.73,1.77,1.77-.73,1.77-1.77,1.77-1.77-.74-1.77-1.77Zm6.92,6.48c0-1.03.74-1.77,1.77-1.77s1.77.73,1.77,1.77-.73,1.77-1.77,1.77-1.77-.74-1.77-1.77Zm3.83-18.27c0-1.03.73-1.77,1.77-1.77s1.77.74,1.77,1.77-.74,1.77-1.77,1.77-1.77-.73-1.77-1.77Zm7.22,6.63c0-1.03.74-1.77,1.77-1.77s1.77.74,1.77,1.77-.73,1.77-1.77,1.77-1.77-.73-1.77-1.77Zm34.92-19.89c2.06-7.66,6.48-12.53,13.55-16.06v-.15h-27.41v.15c7.22,2.95,11.64,7.96,13.7,16.06h.15Z"/>
    </g>
  </g>
</svg>