<?xml version="1.0" encoding="UTF-8"?>
<svg id="_レイヤー_2" data-name="レイヤー 2" xmlns="http://www.w3.org/2000/svg" viewBox="0 0 400 104.03">
  <defs>
    <style>
      .cls-1 {
        fill: #1f4e58;
        stroke-width: 0px;
      }
    </style>
  </defs>
  <g id="_レイヤー_1-2" data-name="レイヤー 1">
    <g>
      <path class="cls-1" d="m0,76.18c0-9.58,7.81-16.21,16.65-16.21,10.16,0,15.47,7.07,15.47,14.44s-6.34,14.29-16.06,14.88c-1.47.15-2.06.88-2.06,1.62,0,4.57,8.84,9.73,19.16,9.73,14.14,0,21.07-9.43,21.07-26.67V21.96c0-10.91-2.21-15.33-15.91-17.83l-7.81-1.48V0h76.92v2.65l-6.34,1.48c-13.55,3.09-15.91,6.92-15.91,17.83v43.46c0,25.05-25.34,38.61-50.83,38.61-17.98,0-34.33-10.76-34.33-27.85Z"/>
      <path class="cls-1" d="m136.87,62.47V21.96c0-10.91-2.36-14.74-15.91-17.83l-6.34-1.48V0h75.44v2.65l-6.34,1.48c-13.55,3.09-15.91,6.92-15.91,17.83v45.67c0,23.57,9.87,31.98,26.81,31.98,19.01,0,33.6-12.67,33.6-29.91V29.91c0-14.59-6.04-20.78-16.5-24.9l-6.04-2.36V0h49.06v2.65l-6.33,2.36c-10.9,3.98-16.36,10.32-16.36,24.9v37.72c0,22.39-15.32,36.4-43.61,36.4-32.12,0-51.57-11.05-51.57-41.55Z"/>
      <path class="cls-1" d="m290.97,22.84v48.77c0,14.59,6.78,21.95,18.12,24.9l9.28,2.36v2.65h-53.93v-2.65l6.04-2.36c10.46-4.13,16.65-10.31,16.65-24.9V19.3l-1.47-1.47c-5.6-5.6-10.76-11.49-18.71-13.7l-5.45-1.48V0h48.62l63.5,59.97v-30.06c0-14.59-6.48-21.96-17.83-24.9l-9.28-2.36V0h53.48v2.65l-6.04,2.36c-10.46,4.12-16.65,10.32-16.65,24.9v72.79h-2.36l-83.98-79.86Z"/>
    </g>
  </g>
</svg>