<?xml version="1.0" encoding="UTF-8"?>
<svg id="_レイヤー_2" data-name="レイヤー 2" xmlns="http://www.w3.org/2000/svg" viewBox="0 0 1114.59 40">
  <defs>
    <style>
      .cls-1, .cls-2, .cls-3, .cls-4, .cls-5 {
        stroke-width: 0px;
      }

      .cls-2 {
        fill: #8a0f0a;
      }

      .cls-3 {
        fill: #868454;
      }

      .cls-4 {
        fill: #1f4e58;
      }

      .cls-5 {
        fill: #25330f;
      }
    </style>
  </defs>
  <g id="_レイヤー_1-2" data-name="レイヤー 1">
    <g>
      <path class="cls-4" d="m0,29.02c0-3.58,2.92-6.05,6.22-6.05,3.8,0,5.78,2.64,5.78,5.39s-2.37,5.34-6,5.56c-.55.06-.77.33-.77.61,0,1.71,3.3,3.63,7.15,3.63,5.28,0,7.87-3.52,7.87-9.96V8.78c0-4.07-.83-5.72-5.94-6.66l-2.92-.55v-.99h28.72v.99l-2.37.55c-5.06,1.15-5.94,2.59-5.94,6.66v16.23c0,9.35-9.46,14.42-18.98,14.42-6.71,0-12.82-4.02-12.82-10.4Z"/>
      <path class="cls-4" d="m51.11,23.91v-15.13c0-4.07-.88-5.5-5.94-6.66l-2.37-.55v-.99h28.17v.99l-2.37.55c-5.06,1.15-5.94,2.59-5.94,6.66v17.06c0,8.8,3.69,11.94,10.01,11.94,7.1,0,12.54-4.73,12.54-11.17v-14.86c0-5.45-2.26-7.76-6.16-9.3l-2.26-.88v-.99h18.32v.99l-2.37.88c-4.07,1.49-6.11,3.85-6.11,9.3v14.08c0,8.36-5.72,13.59-16.29,13.59-11.99,0-19.26-4.13-19.26-15.52Z"/>
      <path class="cls-4" d="m108.65,9.11v18.21c0,5.45,2.53,8.2,6.77,9.3l3.47.88v.99h-20.14v-.99l2.25-.88c3.91-1.54,6.22-3.85,6.22-9.3V7.79l-.55-.55c-2.09-2.09-4.02-4.29-6.99-5.12l-2.04-.55v-.99h18.16l23.71,22.39v-11.22c0-5.45-2.42-8.2-6.66-9.3l-3.47-.88v-.99h19.97v.99l-2.26.88c-3.91,1.54-6.22,3.85-6.22,9.3v27.18h-.88l-31.36-29.82Z"/>
    </g>
    <g>
      <path class="cls-5" d="m455.66,20.08c0-12.1,10.56-19.75,23-19.75,9.02,0,12.27,3.25,13.7,3.25.77,0,2.53-1.05,5.17-3.3h.77v15.57h-.99c-2.64-8.47-8.64-14.2-16.95-14.2-9.52,0-12.54,8.09-12.54,19.04s4.4,17.61,14.03,17.61c4.68,0,7.87-1.27,10.51-3.14,2.75-1.93,4.79-4.62,5.61-8.91h1.43c-.83,4.84-3.03,7.92-6.11,10.07-3.08,2.2-7.21,3.69-13.09,3.69-13.53,0-24.54-6.66-24.54-19.92Z"/>
      <path class="cls-5" d="m503.24,38.07l2.37-.55c5.06-1.16,5.94-2.59,5.94-6.66V9.35c0-4.07-.88-5.5-5.94-6.66l-2.37-.55v-.99h27.62v.99l-2.37.61c-4.51,1.1-5.39,2.53-5.39,6.6v9.24h19.97v-9.24c0-4.07-.88-5.5-5.39-6.6l-2.37-.61v-.99h27.62v.99l-2.37.55c-5.06,1.15-5.94,2.59-5.94,6.66v21.51c0,4.07.88,5.5,5.94,6.66l2.37.55v.99h-27.62v-.99l2.37-.61c4.51-1.1,5.39-2.53,5.39-6.6v-10.73h-19.97v10.73c0,4.07.88,5.5,5.39,6.6l2.37.61v.99h-27.62v-.99Z"/>
      <path class="cls-5" d="m566.78,38.07l2.37-.55c5.06-1.16,5.94-2.59,5.94-6.66V9.35c0-4.07-.88-5.5-5.94-6.66l-2.37-.55v-.99h29.71c5.23,0,10.4.49,13.92,2.37,3.19,1.71,5.01,4.35,5.01,7.7,0,3.91-2.04,6.27-5.23,7.81-3.52,1.71-8.47,2.7-13.7,2.7h-.93c2.75,1.76,5.56,2.59,8.47,2.59,1.38,0,2.75-.16,4.18-.55l5.01,8.75c1.82,3.19,2.92,4.62,6.05,5.34l.94.22v.99h-16.34l-9.9-17.33h-7.32v9.13c0,4.07.88,5.5,5.94,6.66l2.37.55v.99h-28.17v-.99Zm26.96-17.66c6.27,0,9.85-2.92,9.85-9.19s-3.58-8.75-9.85-8.75h-7.1v17.94h7.1Z"/>
      <path class="cls-5" d="m622.4,38.07l2.37-.55c5.06-1.16,5.94-2.59,5.94-6.66V9.35c0-4.07-.88-5.5-5.94-6.66l-2.37-.55v-.99h28.17v.99l-2.37.55c-5.06,1.15-5.94,2.59-5.94,6.66v21.51c0,4.07.88,5.5,5.94,6.66l2.37.55v.99h-28.17v-.99Z"/>
      <path class="cls-5" d="m662.89,36.59c-1.27,0-3.03,1.32-5.12,3.36h-.77v-14.47h.94c1.65,4.29,3.63,7.98,6.88,9.96,3.74,2.25,7.76,3.25,11.44,3.25,5.67,0,11.61-1.87,11.61-6.22,0-2.7-1.71-4.84-6.22-5.67l-12.05-2.2c-8.25-1.54-12.71-5.78-12.71-12.1,0-8.03,7.98-12.16,17.94-12.16,7.59,0,11.88,3.25,12.87,3.25s2.64-1.1,5.12-3.3h.77v13.92h-.94c-1.65-4.29-3.63-7.43-6.82-9.52-3.25-2.15-7.26-3.03-10.95-3.03-5.28,0-10.18,1.6-10.18,6.11,0,3.3,2.97,4.51,7.1,5.28l12.05,2.2c7.98,1.43,11.83,5.61,11.83,11.77,0,7.65-8.58,12.99-19.26,12.99-7.32,0-12.6-3.41-13.53-3.41Z"/>
      <path class="cls-5" d="m709.32,38.07l2.92-.55c5.12-.94,5.83-2.59,5.83-6.66V2.48h-3.3c-5.61,0-8.53,3.58-11.94,10.34l-1.76,3.52h-.99V1.16h47.92v15.19h-.99l-1.76-3.52c-3.41-6.77-6.33-10.34-11.94-10.34h-3.47v28.39c0,4.07.71,5.72,5.83,6.66l2.92.55v.99h-29.27v-.99Z"/>
      <path class="cls-5" d="m761.42,9.08v18.54c0,5.45,2.42,7.76,6.16,9.41l2.37,1.05v.99h-18.38v-.99l2.26-1.05c3.8-1.76,6.22-3.96,6.22-9.41V6.99c-1.54-1.98-3.8-3.74-6.16-4.29l-2.31-.55v-.99h18.43l14.36,24.59,11-24.59h19.86v.99l-2.37.55c-5.06,1.15-5.94,2.59-5.94,6.66v21.51c0,4.07.88,5.5,5.94,6.66l2.37.55v.99h-28.17v-.99l2.37-.55c5.06-1.16,5.94-2.59,5.94-6.66V4.46l-15.52,35.05h-.88l-17.55-30.43Z"/>
      <path class="cls-5" d="m816.59,38.07l.93-.22c3.41-.83,5.45-4.13,8.03-8.97l15.41-28.89h.77l19.86,34.06c1.43,2.53,3.19,3.41,5.39,3.85l.83.16v.99h-25.42v-.99l2.04-.39c2.64-.49,4.02-1.32,4.02-2.81,0-.77-.33-1.65-.94-2.7l-2.48-4.24h-17.39l-.11.22c-.61,1.16-1.1,2.86-1.1,4.13,0,2.7,1.71,4.62,4.95,5.39l1.6.39v.99h-16.4v-.99Zm27.67-11.44l-8.36-14.31-7.54,14.31h15.9Z"/>
      <path class="cls-5" d="m877.65,36.59c-1.27,0-3.03,1.32-5.12,3.36h-.77v-14.47h.94c1.65,4.29,3.63,7.98,6.88,9.96,3.74,2.25,7.76,3.25,11.44,3.25,5.67,0,11.61-1.87,11.61-6.22,0-2.7-1.71-4.84-6.22-5.67l-12.05-2.2c-8.25-1.54-12.71-5.78-12.71-12.1,0-8.03,7.98-12.16,17.94-12.16,7.59,0,11.88,3.25,12.87,3.25s2.64-1.1,5.12-3.3h.77v13.92h-.94c-1.65-4.29-3.63-7.43-6.82-9.52-3.25-2.15-7.26-3.03-10.95-3.03-5.28,0-10.18,1.6-10.18,6.11,0,3.3,2.97,4.51,7.1,5.28l12.05,2.2c7.98,1.43,11.83,5.61,11.83,11.77,0,7.65-8.58,12.99-19.26,12.99-7.32,0-12.6-3.41-13.53-3.41Z"/>
    </g>
    <g>
      <path class="cls-3" d="m935.69,38.49l18.32-13.42c5.34-3.91,6.49-6.99,6.49-12.77,0-6.49-2.92-10.62-10.34-10.62-4.46,0-8.8,1.98-8.8,3.47,0,.38.22.55.66.61,3.3.38,5.61,2.53,5.61,5.5,0,2.81-2.2,5.56-5.94,5.56s-6.22-2.64-6.22-6.22c0-6.71,7.65-10.4,17.72-10.4,12.49,0,19.42,3.74,19.42,9.9,0,4.35-3.8,7.76-11.28,12.27-3.63,2.2-6.38,3.96-11.94,7.92h15.46c4.07,0,5.5-.88,6.66-5.94l.55-2.37h.99v16.95h-37.36v-.44Z"/>
      <path class="cls-3" d="m981.3,19.94c0-11.99,8.75-19.81,21.18-19.81s21.18,7.81,21.18,19.81-8.64,19.81-21.18,19.81-21.18-7.92-21.18-19.81Zm30.15,0c0-10.73-.66-18.49-8.97-18.49s-8.97,7.76-8.97,18.49.72,18.49,8.97,18.49,8.97-7.54,8.97-18.49Z"/>
      <path class="cls-3" d="m1029.1,38.49l18.32-13.42c5.34-3.91,6.49-6.99,6.49-12.77,0-6.49-2.92-10.62-10.34-10.62-4.46,0-8.8,1.98-8.8,3.47,0,.38.22.55.66.61,3.3.38,5.61,2.53,5.61,5.5,0,2.81-2.2,5.56-5.94,5.56s-6.22-2.64-6.22-6.22c0-6.71,7.65-10.4,17.72-10.4,12.49,0,19.42,3.74,19.42,9.9,0,4.35-3.8,7.76-11.28,12.27-3.63,2.2-6.38,3.96-11.94,7.92h15.46c4.07,0,5.5-.88,6.66-5.94l.55-2.37h.99v16.95h-37.36v-.44Z"/>
      <path class="cls-3" d="m1074.98,28.8c0-3.47,2.53-6,6-6,3.14,0,5.72,2.37,5.72,5.5,0,2.92-1.76,4.73-4.62,5.39-.44.11-.66.33-.66.72,0,1.65,4.18,4.02,10.01,4.02,6.55,0,11.06-3.47,11.06-9.35s-2.86-9.35-9.74-9.35h-3.19v-1.43h2.86c6.77,0,8.47-3.74,8.47-8.8,0-4.73-3.3-7.98-9.79-7.98s-9.57,1.87-9.57,3.08c0,.33.22.5.83.71,2.92.99,4.24,3.08,4.24,5.23,0,3.03-2.53,4.9-5.56,4.9-3.19,0-5.61-2.42-5.61-5.61,0-5.83,6.38-9.63,17.33-9.63,11.88,0,19.37,3.69,19.37,9.63,0,5.23-4.79,7.65-13.86,9.08v.11c9.68,1.1,16.34,3.52,16.34,9.68,0,6.99-8.64,11.17-21.46,11.17-11,0-18.16-4.18-18.16-11.06Z"/>
    </g>
    <g>
      <path class="cls-1" d="m455.66,20.08c0-12.1,10.56-19.75,23-19.75,9.02,0,12.27,3.25,13.7,3.25.77,0,2.53-1.05,5.17-3.3h.77v15.57h-.99c-2.64-8.47-8.64-14.2-16.95-14.2-9.52,0-12.54,8.09-12.54,19.04s4.4,17.61,14.03,17.61c4.68,0,7.87-1.27,10.51-3.14,2.75-1.93,4.79-4.62,5.61-8.91h1.43c-.83,4.84-3.03,7.92-6.11,10.07-3.08,2.2-7.21,3.69-13.09,3.69-13.53,0-24.54-6.66-24.54-19.92Zm20.91,18.6c-7.04-2.15-10.18-9.08-10.18-17.99s1.93-15.9,7.7-18.76l-.06-.06c-10.67,2.2-16.95,9.13-16.95,18.21,0,10.12,7.59,17.39,19.48,18.65v-.06Zm-17.06-18.32l2.15-2.15,2.15,2.15-2.15,2.15-2.15-2.15Zm7.48-14.63l.44.38c-3.03,3.85-3.96,6.11-4.68,10.12h-1.54c.77-4.35,2.31-7.26,5.78-10.51Zm-5.72,18.98h1.43c.61,3.74,2.09,6.6,5.28,9.57l-.38.38c-3.47-2.26-5.61-5.83-6.33-9.96Zm35.71-12.77V2.09c-2.37,1.93-3.58,2.92-4.95,2.7l-.06.05c2.15,1.93,3.74,4.07,4.95,7.1h.06Z"/>
      <path class="cls-1" d="m503.24,38.07l2.37-.55c5.06-1.16,5.94-2.59,5.94-6.66V9.35c0-4.07-.88-5.5-5.94-6.66l-2.37-.55v-.99h27.62v.99l-2.37.61c-4.51,1.1-5.39,2.53-5.39,6.6v9.24h19.97v-9.24c0-4.07-.88-5.5-5.39-6.6l-2.37-.61v-.99h27.62v.99l-2.37.55c-5.06,1.15-5.94,2.59-5.94,6.66v21.51c0,4.07.88,5.5,5.94,6.66l2.37.55v.99h-27.62v-.99l2.37-.61c4.51-1.1,5.39-2.53,5.39-6.6v-10.73h-19.97v10.73c0,4.07.88,5.5,5.39,6.6l2.37.61v.99h-27.62v-.99Zm22.17-.33v-.06c-2.81-1.26-3.74-3.19-3.74-6.82V9.35c0-3.63.93-5.61,3.74-6.82v-.06h-16.29v.06c2.92,1.27,3.85,3.14,3.85,6.82v21.51c0,3.69-.99,5.61-4.02,6.82v.06h16.45Zm-10.23-17.83l2.15-2.15,2.15,2.15-2.15,2.15-2.15-2.15Zm1.49-14.8h1.32v10.56h-1.32V5.12Zm0,19.04h1.32v10.95h-1.32v-10.95Zm40.49,13.59v-.06c-2.97-1.21-3.96-3.19-3.96-6.82V9.35c0-3.69.99-5.56,3.96-6.82v-.06h-16.39v.06c2.81,1.27,3.74,3.19,3.74,6.82v21.51c0,3.69-.88,5.56-3.69,6.82v.06h16.34Zm-10.45-17.83l2.15-2.15,2.15,2.15-2.15,2.15-2.15-2.15Zm1.49-14.8h1.32v10.56h-1.32V5.12Zm0,19.04h1.32v10.95h-1.32v-10.95Z"/>
      <path class="cls-1" d="m566.78,38.07l2.37-.55c5.06-1.16,5.94-2.59,5.94-6.66V9.35c0-4.07-.88-5.5-5.94-6.66l-2.37-.55v-.99h29.71c5.23,0,10.4.49,13.92,2.37,3.19,1.71,5.01,4.35,5.01,7.7,0,3.91-2.04,6.27-5.23,7.81-3.52,1.71-8.47,2.7-13.7,2.7h-.93c2.75,1.76,5.56,2.59,8.47,2.59,1.38,0,2.75-.16,4.18-.55l5.01,8.75c1.82,3.19,2.92,4.62,6.05,5.34l.94.22v.99h-16.34l-9.9-17.33h-7.32v9.13c0,4.07.88,5.5,5.94,6.66l2.37.55v.99h-28.17v-.99Zm22.23-.33v-.06c-3.19-1.26-3.8-3.14-3.8-6.82V2.48h-12.93v.06c3.3,1.21,4.24,3.14,4.24,6.82v21.51c0,3.69-.61,5.56-3.8,6.82v.06h16.29Zm-10.29-17.83l2.15-2.15,2.15,2.15-2.15,2.15-2.15-2.15Zm1.49-14.8h1.32v10.56h-1.32V5.12Zm0,19.04h1.32v10.95h-1.32v-10.95Zm13.54-3.74c6.27,0,9.85-2.92,9.85-9.19s-3.58-8.75-9.85-8.75h-7.1v17.94h7.1Zm22.12,17.33v-.06c-1.49-.93-2.53-2.25-3.8-4.51l-4.51-7.87c-1.16.22-2.31.33-3.52.33-2.48,0-4.9-.55-7.32-1.82l-.06.06,7.98,13.86h11.22Zm-6.22-19.92c3.08-1.48,4.35-3.52,4.35-6.6,0-2.81-1.32-4.95-4.18-6.55-2.09-1.15-5.12-1.98-9.79-2.31l-.05.06c3.52,1.7,5.06,4.68,5.06,8.8s-1.65,7.32-5.28,9.13l.05.06c4.18-.5,7.32-1.38,9.85-2.59Zm-6.33,9.9h1.38c3.03,5.34,3.36,6.11,4.35,7.37h-1.6c-.55-.83-1.1-1.87-4.13-7.37Zm2.42-10.45c2.09-1.82,3.19-3.85,3.19-6.05s-.99-3.85-2.75-5.67l.49-.44c2.15,1.71,3.58,3.74,3.58,6.11,0,2.7-1.65,4.9-4.02,6.55l-.49-.5Z"/>
      <path class="cls-1" d="m622.4,38.07l2.37-.55c5.06-1.16,5.94-2.59,5.94-6.66V9.35c0-4.07-.88-5.5-5.94-6.66l-2.37-.55v-.99h28.17v.99l-2.37.55c-5.06,1.15-5.94,2.59-5.94,6.66v21.51c0,4.07.88,5.5,5.94,6.66l2.37.55v.99h-28.17v-.99Zm22.17-.33v-.06c-2.81-1.26-3.74-3.19-3.74-6.82V9.35c0-3.63.88-5.56,3.74-6.82v-.06h-16.29v.06c2.92,1.27,3.85,3.14,3.85,6.82v21.51c0,3.69-.99,5.61-4.02,6.82v.06h16.45Zm-10.23-17.83l2.15-2.15,2.15,2.15-2.15,2.15-2.15-2.15Zm1.49-14.8h1.32v10.56h-1.32V5.12Zm0,19.04h1.32v10.95h-1.32v-10.95Z"/>
      <path class="cls-1" d="m662.89,36.59c-1.27,0-3.03,1.32-5.12,3.36h-.77v-14.47h.94c1.65,4.29,3.63,7.98,6.88,9.96,3.74,2.25,7.76,3.25,11.44,3.25,5.67,0,11.61-1.87,11.61-6.22,0-2.7-1.71-4.84-6.22-5.67l-12.05-2.2c-8.25-1.54-12.71-5.78-12.71-12.1,0-8.03,7.98-12.16,17.94-12.16,7.59,0,11.88,3.25,12.87,3.25s2.64-1.1,5.12-3.3h.77v13.92h-.94c-1.65-4.29-3.63-7.43-6.82-9.52-3.25-2.15-7.26-3.03-10.95-3.03-5.28,0-10.18,1.6-10.18,6.11,0,3.3,2.97,4.51,7.1,5.28l12.05,2.2c7.98,1.43,11.83,5.61,11.83,11.77,0,7.65-8.58,12.99-19.26,12.99-7.32,0-12.6-3.41-13.53-3.41Zm-4.62,1.54c1.76-1.7,3.03-2.59,4.35-2.81v-.06c-1.76-1.43-3.25-3.14-4.35-6.05h-.06v8.91h.06Zm35.98-11.11c0-5.67-3.47-9.19-10.62-10.45l-12.05-2.2c-5.67-1.1-8.31-3.03-8.31-6.6,0-1.82.71-3.36,2.37-4.73l-.06-.06c-4.9,1.82-7.26,5.45-7.26,9.52,0,5.61,3.85,9.35,11.5,10.78l12.05,2.2c5.12.93,7.37,3.52,7.37,6.6,0,1.54-.66,3.14-2.15,4.68l.06.06c4.62-2.37,7.1-5.94,7.1-9.79Zm-23.66-7.54c-5.94-1.1-10.01-4.07-10.07-8.69,0-.38.06-.77.11-1.15h.55c.28,5.17,3.8,7.43,9.63,8.53l1.7.33-.22,1.32-1.7-.33Zm3.91.17l2.53-1.71,1.7,2.48-2.48,1.76-1.76-2.53Zm16.62,10.73c.11-5.12-2.92-7.7-8.47-8.69l-2.04-.38.22-1.32,2.04.38c5.56,1.05,9.02,3.69,9.02,8.31,0,.72-.06,1.49-.22,2.26h-.55v-.55Zm1.26-19.59V2.09h-.05c-1.6,1.49-2.97,2.42-4.46,2.53v.06c1.93,1.43,3.25,3.25,4.46,6.11h.05Z"/>
      <path class="cls-1" d="m709.32,38.07l2.92-.55c5.12-.94,5.83-2.59,5.83-6.66V2.48h-3.3c-5.61,0-8.53,3.58-11.94,10.34l-1.76,3.52h-.99V1.16h47.92v15.19h-.99l-1.76-3.52c-3.41-6.77-6.33-10.34-11.94-10.34h-3.47v28.39c0,4.07.71,5.72,5.83,6.66l2.92.55v.99h-29.27v-.99Zm-7.87-25.42c3.03-6,4.84-8.58,7.7-10.12v-.06h-7.76v10.18h.06Zm30.43,25.09v-.06c-2.59-1.21-3.36-3.19-3.36-6.82V2.48h-9.13v28.39c0,3.63-.77,5.61-3.36,6.82v.06h15.85Zm-10.07-17.83l2.15-2.15,2.15,2.15-2.15,2.15-2.15-2.15Zm1.49-14.8h1.32v10.56h-1.32V5.12Zm0,19.04h1.32v10.95h-1.32v-10.95Zm23.38-11.5V2.48h-7.76v.06c2.86,1.54,4.68,4.13,7.7,10.12h.05Z"/>
      <path class="cls-1" d="m761.42,9.08v18.54c0,5.45,2.42,7.76,6.16,9.41l2.37,1.05v.99h-18.38v-.99l2.26-1.05c3.8-1.76,6.22-3.96,6.22-9.41V6.99c-1.54-1.98-3.8-3.74-6.16-4.29l-2.31-.55v-.99h18.43l14.36,24.59,11-24.59h19.86v.99l-2.37.55c-5.06,1.15-5.94,2.59-5.94,6.66v21.51c0,4.07.88,5.5,5.94,6.66l2.37.55v.99h-28.17v-.99l2.37-.55c5.06-1.16,5.94-2.59,5.94-6.66V4.46l-15.52,35.05h-.88l-17.55-30.43Zm4.84,28.66v-.06c-2.97-1.43-4.68-3.25-5.45-6.27h-.11c-.83,2.97-2.53,4.73-5.5,6.27v.06h11.06Zm17.5-10.4l-14.53-24.87h-12.98v.06c3.08,1.27,4.62,3.03,5.94,5.23l17.11,29.66,4.46-10.07Zm-18.87-22.23h1.49l4.57,7.76-1.1.66-4.95-8.42Zm6,13.31l.83-2.97,2.92.83-.77,2.92-2.97-.77Zm3.74,3.36l1.1-.66,4.51,7.65-.66,1.48-4.95-8.47Zm34.88,15.95v-.06c-3.03-1.21-3.91-3.14-3.91-6.82V9.35c0-3.69.88-5.61,3.8-6.82v-.06h-12.71v28.39c0,3.69-.88,5.61-3.91,6.82v.06h16.73Zm-10.51-17.83l2.15-2.15,2.15,2.15-2.15,2.15-2.15-2.15Zm1.49-14.8h1.32v10.56h-1.32V5.12Zm0,19.04h1.32v10.95h-1.32v-10.95Z"/>
      <path class="cls-1" d="m816.59,38.07l.93-.22c3.41-.83,5.45-4.13,8.03-8.97l15.41-28.89h.77l19.86,34.06c1.43,2.53,3.19,3.41,5.39,3.85l.83.16v.99h-25.42v-.99l2.04-.39c2.64-.49,4.02-1.32,4.02-2.81,0-.77-.33-1.65-.94-2.7l-2.48-4.24h-17.39l-.11.22c-.61,1.16-1.1,2.86-1.1,4.13,0,2.7,1.71,4.62,4.95,5.39l1.6.39v.99h-16.4v-.99Zm11.61-.33v-.06c-1.93-1.21-2.97-2.97-2.97-5.56h-.06c-1.43,2.53-2.75,4.29-4.57,5.56v.06h7.59Zm16.07-11.11l-8.36-14.31-7.54,14.31h15.9Zm18.93,11.11v-.06c-1.21-.71-2.04-1.76-2.81-2.97l-19.04-32.68-4.73,8.91,12.1,20.58c.71,1.27,1.1,2.37,1.1,3.36,0,1.15-.49,2.09-1.71,2.81v.06h15.08Zm-23.11-28.17l.72-1.38,5.45,9.52-1.1.66-5.06-8.8Zm6.16,13.7l.83-2.97,2.92.83-.77,2.92-2.97-.77Zm3.74,3.36l1.1-.66,5.34,9.13h-1.54l-4.9-8.47Z"/>
      <path class="cls-1" d="m877.65,36.59c-1.27,0-3.03,1.32-5.12,3.36h-.77v-14.47h.94c1.65,4.29,3.63,7.98,6.88,9.96,3.74,2.25,7.76,3.25,11.44,3.25,5.67,0,11.61-1.87,11.61-6.22,0-2.7-1.71-4.84-6.22-5.67l-12.05-2.2c-8.25-1.54-12.71-5.78-12.71-12.1,0-8.03,7.98-12.16,17.94-12.16,7.59,0,11.88,3.25,12.87,3.25s2.64-1.1,5.12-3.3h.77v13.92h-.94c-1.65-4.29-3.63-7.43-6.82-9.52-3.25-2.15-7.26-3.03-10.95-3.03-5.28,0-10.18,1.6-10.18,6.11,0,3.3,2.97,4.51,7.1,5.28l12.05,2.2c7.98,1.43,11.83,5.61,11.83,11.77,0,7.65-8.58,12.99-19.26,12.99-7.32,0-12.6-3.41-13.53-3.41Zm-4.62,1.54c1.76-1.7,3.03-2.59,4.35-2.81v-.06c-1.76-1.43-3.25-3.14-4.35-6.05h-.06v8.91h.06Zm35.98-11.11c0-5.67-3.47-9.19-10.62-10.45l-12.05-2.2c-5.67-1.1-8.31-3.03-8.31-6.6,0-1.82.71-3.36,2.37-4.73l-.06-.06c-4.9,1.82-7.26,5.45-7.26,9.52,0,5.61,3.85,9.35,11.5,10.78l12.05,2.2c5.12.93,7.37,3.52,7.37,6.6,0,1.54-.66,3.14-2.15,4.68l.06.06c4.62-2.37,7.1-5.94,7.1-9.79Zm-23.66-7.54c-5.94-1.1-10.01-4.07-10.07-8.69,0-.38.06-.77.11-1.15h.55c.28,5.17,3.8,7.43,9.63,8.53l1.7.33-.22,1.32-1.7-.33Zm3.91.17l2.53-1.71,1.7,2.48-2.48,1.76-1.76-2.53Zm16.62,10.73c.11-5.12-2.92-7.7-8.47-8.69l-2.04-.38.22-1.32,2.04.38c5.56,1.05,9.02,3.69,9.02,8.31,0,.72-.06,1.49-.22,2.26h-.55v-.55Zm1.26-19.59V2.09h-.05c-1.6,1.49-2.97,2.42-4.46,2.53v.06c1.93,1.43,3.25,3.25,4.46,6.11h.05Z"/>
    </g>
    <g>
      <path class="cls-1" d="m0,29.02c0-3.58,2.92-6.05,6.22-6.05,3.8,0,5.78,2.64,5.78,5.39s-2.37,5.34-6,5.56c-.55.06-.77.33-.77.61,0,1.71,3.3,3.63,7.15,3.63,5.28,0,7.87-3.52,7.87-9.96V8.78c0-4.07-.83-5.72-5.94-6.66l-2.92-.55v-.99h28.72v.99l-2.37.55c-5.06,1.15-5.94,2.59-5.94,6.66v16.23c0,9.35-9.46,14.42-18.98,14.42-6.71,0-12.82-4.02-12.82-10.4Zm4.24,6.33c-.06-.28-.16-.66-.16-.93,0-.99.66-1.65,1.82-1.65h.05c2.75,0,4.73-2.15,4.73-4.4,0-2.42-1.76-4.07-4.46-4.07s-4.9,2.09-4.9,4.73c0,2.31.88,4.62,2.86,6.38l.06-.06Zm-1.76-6.38c0-.38.27-.71.71-.71.55,0,1.05.44,2.31,2.25v-2.64c-.33-.17-.55-.5-.55-.88,0-.55.44-.99.99-.99s.99.44.99.99c0,.38-.22.71-.55.88v2.64c1.27-1.81,1.76-2.25,2.31-2.25.44,0,.71.33.71.71,0,.71-.71,1.21-3.03,2.15h-.93c-2.37-.99-2.97-1.43-2.97-2.15Zm.55-1.87c0-.33.22-.55.55-.55s.55.22.55.55-.22.55-.55.55-.55-.22-.55-.55Zm4.73,0c0-.33.22-.55.55-.55s.55.22.55.55-.22.55-.55.55-.55-.22-.55-.55Zm22.61-2.09V8.78c0-3.69.94-5.61,4.02-6.82v-.06h-16.29v.06c2.7,1.21,3.58,3.19,3.58,6.82v19.42c0,4.4-1.26,7.54-3.74,9.57v.05c7.59-1.87,12.43-6.66,12.43-12.82Zm-6.66,6.49c0-.55.38-.99.93-1.1.17-.38.28-.83.38-1.27-.6.72-1.71,1.76-2.31,1.76-.38,0-.61-.22-.61-.6,0-.94,1.6-1.65,3.08-1.98.16-.66.22-1.38.27-2.09-.71,1.05-1.98,2.26-2.69,2.26-.33,0-.61-.33-.61-.77,0-.61.99-1.38,3.3-2.42v-2.09c-.66.99-1.65,2.31-2.48,2.31-.5,0-.83-.38-.83-.83,0-.66.88-1.32,3.3-2.25v-.72c-.93-.28-1.65-1.1-1.65-2.15s.72-1.82,1.65-2.09v-.72c-2.42-.93-3.3-1.6-3.3-2.26,0-.44.33-.83.83-.83.83,0,1.82,1.32,2.48,2.31v-2.53c-2.42-.93-3.3-1.6-3.3-2.26,0-.44.33-.83.83-.83.83,0,1.82,1.32,2.48,2.31v-2.53c-2.42-.93-3.3-1.6-3.3-2.26,0-.44.33-.83.83-.83.83,0,1.82,1.32,2.48,2.31v-2.92c-.33-.16-.55-.6-.55-.93,0-.61.49-1.1,1.1-1.1s1.1.5,1.1,1.1c0,.33-.22.77-.55.93v2.92c.66-.99,1.65-2.31,2.48-2.31.49,0,.83.38.83.83,0,.71-.88,1.32-3.3,2.26v2.53c.66-.99,1.65-2.31,2.48-2.31.49,0,.83.38.83.83,0,.66-.88,1.32-3.3,2.26v2.53c.66-.99,1.65-2.31,2.48-2.31.49,0,.83.38.83.83,0,.66-.88,1.32-3.3,2.26v.72c.88.27,1.6,1.1,1.6,2.09s-.72,1.87-1.6,2.15v.72c2.42.93,3.3,1.6,3.3,2.25,0,.44-.33.83-.83.83-.83,0-1.82-1.32-2.48-2.31v2.09c1.6.71,2.86,1.92,2.86,2.69,0,.44-.22.77-.72.77-.6,0-1.54-1.32-2.15-2.64-.05.83-.11,1.6-.22,2.31.77.55,1.71,1.6,1.71,2.31,0,.33-.28.55-.61.55-.55,0-.99-1.1-1.27-1.93l-.49,1.49c.11.16.22.38.22.66,0,.61-.5,1.1-1.1,1.1s-1.1-.49-1.1-1.1Zm-1.43-13.76c0-.38.27-.66.66-.66s.66.27.66.66-.28.66-.66.66-.66-.28-.66-.66Zm0,3.63c0-.38.27-.66.66-.66s.66.27.66.66-.28.66-.66.66-.66-.28-.66-.66Zm6.16-3.63c0-.38.27-.66.66-.66s.66.27.66.66-.28.66-.66.66-.66-.28-.66-.66Zm0,3.63c0-.38.27-.66.66-.66s.66.27.66.66-.28.66-.66.66-.66-.28-.66-.66Z"/>
      <path class="cls-1" d="m51.11,23.91v-15.13c0-4.07-.88-5.5-5.94-6.66l-2.37-.55v-.99h28.17v.99l-2.37.55c-5.06,1.15-5.94,2.59-5.94,6.66v17.06c0,8.8,3.69,11.94,10.01,11.94,7.1,0,12.54-4.73,12.54-11.17v-14.86c0-5.45-2.26-7.76-6.16-9.3l-2.26-.88v-.99h18.32v.99l-2.37.88c-4.07,1.49-6.11,3.85-6.11,9.3v14.08c0,8.36-5.72,13.59-16.29,13.59-11.99,0-19.26-4.13-19.26-15.52Zm16.29,14.2c-4.29-1.98-6.05-6.16-6.05-12.27V8.78c0-3.69.88-5.61,3.85-6.82v-.06h-16.62v.06c2.97,1.27,3.85,3.14,3.85,6.82v15.13c0,8.69,4.4,13.15,14.91,14.25l.06-.06Zm-10.45-6.6c0-.28.11-.5.22-.66l-.5-1.49c-.33,1.43-.83,1.93-1.27,1.93-.33,0-.61-.22-.61-.55,0-.72.61-1.49,1.71-2.31-.11-.71-.16-1.48-.22-2.31-.66,1.54-1.54,2.64-2.15,2.64-.38,0-.71-.33-.71-.77,0-.88,1.1-1.92,2.86-2.69v-2.09c-.99,1.54-1.87,2.31-2.48,2.31-.5,0-.83-.38-.83-.83,0-.71.77-1.26,3.3-2.25v-.72c-.94-.28-1.65-1.1-1.65-2.15s.71-1.82,1.65-2.09v-.72c-2.53-.99-3.3-1.54-3.3-2.26,0-.44.33-.83.83-.83.61,0,1.48.77,2.48,2.31v-2.53c-2.53-.99-3.3-1.54-3.3-2.26,0-.44.33-.83.83-.83.61,0,1.48.77,2.48,2.31v-2.53c-2.64-1.05-3.3-1.49-3.3-2.26,0-.44.33-.83.83-.83.61,0,1.54.88,2.48,2.31v-2.92c-.33-.16-.55-.55-.55-.93,0-.61.5-1.1,1.1-1.1s1.1.5,1.1,1.1c0,.38-.22.77-.55.93v2.92c.99-1.54,1.87-2.31,2.48-2.31.5,0,.83.38.83.83,0,.71-.77,1.27-3.3,2.26v2.53c.99-1.54,1.87-2.31,2.48-2.31.5,0,.83.38.83.83,0,.71-.77,1.27-3.3,2.26v2.53c.99-1.54,1.87-2.31,2.48-2.31.5,0,.83.38.83.83,0,.71-.77,1.27-3.3,2.26v.72c.88.27,1.6,1.1,1.6,2.09s-.72,1.87-1.6,2.15v.72c2.53.99,3.3,1.54,3.3,2.25,0,.44-.33.83-.83.83-.6,0-1.48-.77-2.48-2.31v2.09c2.53,1.15,3.3,1.71,3.3,2.42,0,.44-.27.77-.6.77-.77,0-1.71-.77-2.7-2.26.06.72.11,1.43.28,2.09,2.04.44,3.08,1.16,3.08,1.98,0,.38-.22.6-.61.6-.55,0-1.26-.55-2.31-1.76.11.44.22.88.38,1.27.55.11.94.55.94,1.1,0,.61-.5,1.1-1.1,1.1s-1.1-.49-1.1-1.1Zm-3.85-13.76c0-.38.28-.66.66-.66s.66.27.66.66-.28.66-.66.66-.66-.28-.66-.66Zm0,3.63c0-.38.28-.66.66-.66s.66.27.66.66-.28.66-.66.66-.66-.28-.66-.66Zm6.16-3.63c0-.38.27-.66.66-.66s.66.27.66.66-.28.66-.66.66-.66-.28-.66-.66Zm0,3.63c0-.38.27-.66.66-.66s.66.27.66.66-.28.66-.66.66-.66-.28-.66-.66Zm26.68-13.48c.77-2.97,2.31-4.73,5.06-5.94v-.06h-10.18v.06c2.69,1.32,4.24,3.08,5.06,5.94h.05Z"/>
      <path class="cls-1" d="m108.65,9.11v18.21c0,5.45,2.53,8.2,6.77,9.3l3.47.88v.99h-20.14v-.99l2.25-.88c3.91-1.54,6.22-3.85,6.22-9.3V7.79l-.55-.55c-2.09-2.09-4.02-4.29-6.99-5.12l-2.04-.55v-.99h18.16l23.71,22.39v-11.22c0-5.45-2.42-8.2-6.66-9.3l-3.47-.88v-.99h19.97v.99l-2.26.88c-3.91,1.54-6.22,3.85-6.22,9.3v27.18h-.88l-31.36-29.82Zm30.81,15.79L115.25,1.95l-13.2-.06v.06c2.53,1.16,4.07,2.75,5.56,4.18l31.86,30.37v-11.61Zm-26.19,12.27v-.06c-2.75-1.1-4.4-2.97-5.28-6h-.11c-.77,2.92-2.37,4.68-5.12,6v.06h10.51Zm18.76-8.91c0-.61.28-1.38.93-2.86l-1.92-1.82c.16.61.38,1.43.38,2.09,0,.88-.38,1.38-.88,1.38-.44,0-.88-.38-.88-.99,0-.5.28-1.32.94-2.92l-1.93-1.87c.16.66.33,1.54.33,2.26,0,.61-.17,1.27-.77,1.27-.49,0-.93-.38-.93-.99,0-.33.16-.88.93-2.92l-1.7-1.65c.11.55.22,1.27.22,1.87,0,.88-.38,1.49-.88,1.49-.44,0-.83-.39-.83-.93,0-.44.22-1.1.94-2.92l-.5-.44c-.27.16-.6.27-.99.27-1.21,0-2.26-.99-2.26-2.2,0-.33.11-.66.22-.99l-.49-.5c-1.49.71-2.42.99-3.03.99-.55,0-.99-.28-.99-.83,0-.61.72-.83,1.43-.83s1.49.16,2.15.28l-1.87-1.82c-1.76.83-2.48,1.05-3.03,1.05-.72,0-.99-.44-.99-.77,0-.66.83-.93,1.65-.93.61,0,1.32.11,1.87.22l-1.93-1.81c-1.38.55-2.53.93-2.97.93-.55,0-.99-.28-.99-.83s.6-.77,1.6-.77c.61,0,1.32.11,1.87.17l-1.81-1.76c-1.16.66-2.37,1.05-3.14,1.05-.66,0-.93-.44-.93-.88,0-.61.66-.83,1.43-.83.83,0,1.65.22,2.26.33l-1.32-1.21h-.22c-.61,0-1.1-.5-1.1-1.1s.5-1.1,1.1-1.1,1.1.5,1.1,1.1c0,.11,0,.28-.06.38l1.04.99c-.11-.6-.22-1.38-.22-1.98,0-.99.27-1.49.83-1.49s.77.39.77.93c0,.5-.33,1.6-.88,2.97l2.04,1.93c-.16-.61-.33-1.49-.33-2.2,0-.77.22-1.49.83-1.49.55,0,.77.38.77.93,0,.66-.33,1.82-.88,3.14l2.04,1.93c-.11-.66-.33-1.54-.33-2.26,0-.77.22-1.38.83-1.38.55,0,.77.49.77,1.04,0,.61-.33,1.65-.88,2.97l1.82,1.76c-.11-.61-.22-1.38-.22-2.04,0-.72.11-1.6.83-1.6.5,0,.77.44.77.99,0,.44-.22,1.15-.94,3.03l.55.5c.33-.22.77-.39,1.21-.39,1.15,0,2.15.93,2.15,2.09,0,.44-.11.83-.33,1.16l.39.38c1.49-.72,2.42-1.05,3.08-1.05.5,0,.99.28.99.77,0,.66-.66.93-1.43.93-.71,0-1.65-.16-2.31-.33l2.04,1.92c1.65-.71,2.64-1.04,3.08-1.04.66,0,.94.38.94.71,0,.72-1.1.99-2.04.99-.5,0-.94-.06-1.38-.11l1.71,1.65c1.49-.71,2.42-1.05,3.03-1.05.71,0,.99.33.99.77,0,.66-.88.93-1.82.93-.55,0-1.16-.06-1.65-.16l1.82,1.71c1.7-.72,2.59-.99,3.14-.99s.83.28.83.61c0,.66-.66.93-1.6.93h-1.76l1.43,1.38.28-.06c.61,0,1.1.5,1.1,1.1s-.49,1.1-1.1,1.1-1.1-.5-1.1-1.1v-.22l-1.43-1.38c.16.61.27,1.32.27,1.98,0,.93-.33,1.37-.83,1.37-.44,0-.88-.38-.88-.99Zm-11.61-10.95c0-.38.28-.66.66-.66s.66.27.66.66-.27.66-.66.66-.66-.28-.66-.66Zm2.59,2.42c0-.38.28-.66.66-.66s.66.27.66.66-.27.66-.66.66-.66-.28-.66-.66Zm1.43-6.82c0-.38.27-.66.66-.66s.66.28.66.66-.28.66-.66.66-.66-.27-.66-.66Zm2.69,2.48c0-.38.28-.66.66-.66s.66.28.66.66-.27.66-.66.66-.66-.27-.66-.66Zm13.04-7.43c.77-2.86,2.42-4.68,5.06-6v-.06h-10.23v.06c2.7,1.1,4.35,2.97,5.12,6h.06Z"/>
    </g>
    <g>
      <path class="cls-1" d="m935.69,38.49l18.32-13.42c5.34-3.91,6.49-6.99,6.49-12.77,0-6.49-2.92-10.62-10.34-10.62-4.46,0-8.8,1.98-8.8,3.47,0,.38.22.55.66.61,3.3.38,5.61,2.53,5.61,5.5,0,2.81-2.2,5.56-5.94,5.56s-6.22-2.64-6.22-6.22c0-6.71,7.65-10.4,17.72-10.4,12.49,0,19.42,3.74,19.42,9.9,0,4.35-3.8,7.76-11.28,12.27-3.63,2.2-6.38,3.96-11.94,7.92h15.46c4.07,0,5.5-.88,6.66-5.94l.55-2.37h.99v16.95h-37.36v-.44Zm10.62-27.23c0-2.2-1.7-3.85-4.07-4.13-1.49-.17-2.04-.88-2.04-1.82,0-.22.11-.66.33-1.15l-.05-.06c-2.75,2.04-3.69,4.24-3.69,6.49,0,2.75,2.15,4.9,4.9,4.9,2.59,0,4.62-1.87,4.62-4.24Zm-5.83,1.71c0-.39.22-.72.55-.94v-2.86c-1.27,1.76-1.76,2.09-2.26,2.09s-.77-.38-.77-.77c0-.77.72-1.27,3.03-2.2h.93c2.37.94,3.08,1.49,3.08,2.2,0,.38-.27.77-.77.77-.61,0-1.05-.44-2.26-2.09v2.86c.33.22.55.55.55.94,0,.55-.49,1.04-1.05,1.04s-1.04-.5-1.04-1.04Zm-2.04-.33c0-.33.28-.61.61-.61s.61.27.61.61-.28.61-.61.61-.61-.27-.61-.61Zm33.29,24.98v-9.79h-.06c-1.15,2.53-2.86,3.8-6.82,3.8h-17.33l-8.31,6h32.52Zm-28.34-24.98c0-.33.28-.61.61-.61s.61.27.61.61-.28.61-.61.61-.61-.27-.61-.61Zm6,23.77c0-.44.77-.94,1.38-1.32h-1.82c-.22.33-.55.55-.94.55-.61,0-1.1-.44-1.1-1.05s.5-1.05,1.1-1.05c.38,0,.72.22.94.55h1.7c-.61-.39-1.26-.88-1.26-1.27s.27-.66.61-.66c.49,0,.83.44,1.38,1.93h2.04c-.61-.39-1.27-.88-1.27-1.27s.28-.66.61-.66c.5,0,.83.44,1.38,1.93h1.98c.28-.83,1.05-1.49,1.93-1.49s1.65.66,1.92,1.49h1.98c.55-1.49.88-1.93,1.38-1.93.33,0,.61.28.61.66s-.66.88-1.27,1.27h2.04c.55-1.49.88-1.93,1.38-1.93.33,0,.61.28.61.66s-.66.88-1.27,1.27h1.82c.17-.33.5-.55.94-.55.61,0,1.05.44,1.05,1.05s-.44,1.05-1.05,1.05c-.44,0-.77-.22-.94-.55h-1.92c.61.38,1.38.88,1.38,1.32s-.28.66-.61.66c-.55,0-.88-.44-1.43-1.98h-2.09c.61.38,1.38.88,1.38,1.32s-.27.66-.61.66c-.55,0-.88-.44-1.43-1.98h-1.93c-.27.83-1.04,1.49-1.92,1.49s-1.65-.66-1.93-1.49h-1.93c-.55,1.54-.88,1.98-1.43,1.98-.33,0-.61-.22-.61-.66s.77-.94,1.38-1.32h-2.09c-.55,1.54-.88,1.98-1.43,1.98-.33,0-.61-.22-.61-.66Zm5.23-3.52c0-.33.28-.61.61-.61s.61.28.61.61-.27.61-.61.61-.61-.27-.61-.61Zm0,3.47c0-.33.28-.6.61-.6s.61.27.61.6-.27.61-.61.61-.61-.28-.61-.61Zm6.44-15.07c5.23-3.41,10.12-7.04,10.12-11.22,0-5.01-5.72-8.09-15.84-8.75v.06c4.46,1.7,6.6,5.5,6.6,10.95,0,4.79-.83,7.59-4.07,10.89l.11.11c1.05-.77,2.15-1.43,3.08-2.04Zm-.83,11.61c0-.33.28-.61.61-.61s.61.28.61.61-.27.61-.61.61-.61-.27-.61-.61Zm0,3.47c0-.33.28-.6.61-.6s.61.27.61.6-.27.61-.61.61-.61-.28-.61-.61Zm4.62-21.73c0-.55.44-1.05.93-1.1.17-.55.28-1.04.33-1.6-.83.77-2.15,1.87-2.86,1.87-.5,0-.83-.33-.83-.77,0-.72.88-1.21,3.8-2.04v-.77c-3.25-.77-4.24-1.26-4.24-2.2,0-.44.38-.77.88-.77.88,0,2.37,1.1,3.3,1.98-.11-.55-.22-1.1-.49-1.65h-.06c-.61,0-1.1-.5-1.1-1.1s.5-1.1,1.1-1.1,1.1.5,1.1,1.1c0,.28-.11.5-.22.66.33.66.49,1.32.61,1.98.61-.99,1.43-2.15,2.09-2.15.55,0,.83.33.83.77,0,.83-.66,1.38-2.81,2.37v.93c1.93.99,2.53,1.43,2.53,1.93,0,.38-.27.71-.77.71-.61,0-1.27-.83-1.82-1.71-.11.61-.28,1.21-.44,1.87.22.16.33.44.33.77,0,.6-.49,1.1-1.1,1.1s-1.1-.5-1.1-1.1Zm-2.15-4.07c0-.38.28-.66.66-.66s.66.28.66.66-.28.66-.66.66-.66-.28-.66-.66Zm6.33,0c0-.38.27-.66.66-.66s.66.28.66.66-.27.66-.66.66-.66-.28-.66-.66Z"/>
      <path class="cls-1" d="m1023.66,19.94c0,11.88-8.64,19.81-21.18,19.81s-21.18-7.92-21.18-19.81S990.04.14,1002.48.14s21.18,7.81,21.18,19.81Zm-26.91,17.94c-4.18-3.14-4.68-9.96-4.68-17.94s.5-14.75,4.68-17.94l-.05-.06c-8.64,2.15-13.98,8.86-13.98,17.99s5.39,15.84,13.98,17.99l.05-.06Zm-13.04-19.7c0-.38.28-.66.66-.66s.66.27.66.66-.28.66-.66.66-.66-.28-.66-.66Zm0,3.63c0-.38.28-.66.66-.66s.66.27.66.66-.28.66-.66.66-.66-.28-.66-.66Zm8.47,7.92c0,.33-.27.55-.66.55-.61,0-1.38-.33-2.15-.88.22.44.44.88.77,1.27h.16c.61,0,1.1.5,1.1,1.1s-.49,1.1-1.1,1.1-1.1-.49-1.1-1.1c0-.16.06-.38.11-.55-.27-.38-.55-.88-.83-1.38-.22,1.27-.55,1.82-1.1,1.82-.33,0-.55-.28-.55-.72,0-.55.33-1.1,1.27-2.04-.22-.66-.44-1.32-.61-2.04-.61,1.54-1.05,2.09-1.71,2.09-.44,0-.77-.38-.77-.88,0-.66.72-1.43,2.26-2.48-.11-.66-.16-1.38-.22-2.04-1.32,1.65-1.82,2.09-2.48,2.09-.44,0-.77-.33-.77-.77,0-.88.99-1.49,3.19-1.98-.05-.28-.05-.5-.05-.77-.94-.22-1.65-1.1-1.65-2.15s.71-1.82,1.65-2.09c0-.33,0-.61.05-.94-2.2-.44-3.19-1.05-3.19-1.92,0-.5.28-.77.77-.77.72,0,1.38.55,2.48,2.09.06-.72.11-1.43.22-2.15-1.76-1.16-2.31-1.71-2.31-2.31,0-.44.33-.88.83-.88.61,0,1.1.55,1.76,1.98.11-.72.33-1.43.55-2.04-.55-.61-1.21-1.43-1.21-2.04,0-.39.22-.72.61-.72.55,0,.88.94,1.05,1.71.22-.44.5-.88.77-1.27-.05-.16-.11-.38-.11-.55,0-.61.49-1.1,1.1-1.1s1.1.5,1.1,1.1-.49,1.1-1.1,1.1h-.16c-.27.33-.49.71-.71,1.1.83-.5,1.6-.83,2.09-.83.38,0,.61.28.61.66,0,.55-.72.88-3.08,1.21-.22.61-.39,1.21-.55,1.87.77-.77,1.82-1.6,2.64-1.6.38,0,.71.27.71.71,0,.94-.83,1.38-3.52,1.93-.11.61-.16,1.21-.22,1.82.83-.83,2.04-1.76,2.81-1.76.44,0,.77.28.77.66,0,.93-.88,1.38-3.63,2.04,0,.27-.05.61-.05.88.93.27,1.65,1.1,1.65,2.09s-.72,1.87-1.65,2.15c.05.22.05.49.05.72,2.59.6,3.58,1.1,3.63,1.82,0,.44-.28.88-.83.88-.72,0-1.87-.88-2.75-1.7.06.55.11,1.1.22,1.65,2.31.49,3.52,1.21,3.52,2.09,0,.39-.28.66-.61.66-.83,0-1.65-.5-2.75-1.6.16.66.33,1.32.55,1.93,2.31.22,3.14.5,3.14,1.15Zm-.99-11.55c0,.38-.27.66-.66.66s-.66-.28-.66-.66.27-.66.66-.66.66.27.66.66Zm0,3.63c0,.39-.27.66-.66.66s-.66-.28-.66-.66.27-.66.66-.66.66.27.66.66Zm20.25-1.87c0-10.73-.66-18.49-8.97-18.49s-8.97,7.76-8.97,18.49.72,18.49,8.97,18.49,8.97-7.54,8.97-18.49Zm10.78,0c0-9.13-5.34-15.85-13.97-17.99l-.06.06c4.18,3.19,4.68,9.96,4.68,17.94s-.5,14.8-4.68,17.94l.06.06c8.58-2.15,13.97-8.86,13.97-17.99Zm-1.1,4.95c0,.44-.33.77-.77.77-.66,0-1.15-.44-2.48-2.09-.05.66-.11,1.38-.22,2.04,1.54,1.05,2.26,1.82,2.26,2.48,0,.5-.33.88-.77.88-.66,0-1.1-.55-1.7-2.09-.17.71-.39,1.38-.61,2.04.94.94,1.27,1.49,1.27,2.04,0,.44-.22.72-.55.72-.55,0-.88-.55-1.1-1.82-.27.5-.55.99-.83,1.38.06.16.11.39.11.55,0,.61-.5,1.1-1.1,1.1s-1.1-.49-1.1-1.1.5-1.1,1.1-1.1h.16c.33-.38.55-.83.77-1.27-.77.55-1.54.88-2.15.88-.38,0-.66-.22-.66-.55,0-.66.83-.93,3.14-1.15.22-.61.38-1.27.55-1.93-1.1,1.1-1.92,1.6-2.75,1.6-.33,0-.61-.28-.61-.66,0-.88,1.21-1.6,3.52-2.09.11-.55.16-1.1.22-1.65-.88.83-2.04,1.7-2.75,1.7-.55,0-.83-.44-.83-.88.05-.72,1.05-1.21,3.63-1.82,0-.22,0-.5.06-.72-.94-.28-1.65-1.16-1.65-2.15s.71-1.82,1.65-2.09c0-.28-.06-.61-.06-.88-2.75-.66-3.63-1.1-3.63-2.04,0-.38.33-.66.77-.66.77,0,1.98.94,2.81,1.76-.05-.61-.11-1.21-.22-1.82-2.7-.55-3.52-.99-3.52-1.93,0-.44.33-.71.71-.71.83,0,1.87.83,2.64,1.6-.16-.66-.33-1.27-.55-1.87-2.37-.33-3.08-.66-3.08-1.21,0-.38.22-.66.61-.66.5,0,1.27.33,2.09.83-.22-.38-.44-.77-.72-1.1h-.16c-.61,0-1.1-.5-1.1-1.1s.5-1.1,1.1-1.1,1.1.5,1.1,1.1c0,.16-.06.38-.11.55.28.38.55.83.77,1.27.16-.77.49-1.71,1.05-1.71.38,0,.61.33.61.72,0,.61-.66,1.43-1.21,2.04.22.61.44,1.32.55,2.04.66-1.43,1.15-1.98,1.76-1.98.5,0,.83.44.83.88,0,.61-.55,1.16-2.31,2.31.11.71.17,1.43.22,2.15,1.1-1.54,1.76-2.09,2.48-2.09.5,0,.77.28.77.77,0,.88-.99,1.48-3.19,1.92.06.33.06.61.06.94.93.27,1.65,1.1,1.65,2.09,0,1.04-.72,1.92-1.65,2.15,0,.28,0,.49-.06.77,2.2.49,3.19,1.1,3.19,1.98Zm-7.37-6.71c0-.38.28-.66.66-.66s.66.27.66.66-.28.66-.66.66-.66-.28-.66-.66Zm0,3.63c0-.38.28-.66.66-.66s.66.27.66.66-.28.66-.66.66-.66-.28-.66-.66Zm7.48-3.63c0,.38-.27.66-.66.66s-.66-.28-.66-.66.27-.66.66-.66.66.27.66.66Zm0,3.63c0,.39-.27.66-.66.66s-.66-.28-.66-.66.27-.66.66-.66.66.27.66.66Z"/>
      <path class="cls-1" d="m1029.1,38.49l18.32-13.42c5.34-3.91,6.49-6.99,6.49-12.77,0-6.49-2.92-10.62-10.34-10.62-4.46,0-8.8,1.98-8.8,3.47,0,.38.22.55.66.61,3.3.38,5.61,2.53,5.61,5.5,0,2.81-2.2,5.56-5.94,5.56s-6.22-2.64-6.22-6.22c0-6.71,7.65-10.4,17.72-10.4,12.49,0,19.42,3.74,19.42,9.9,0,4.35-3.8,7.76-11.28,12.27-3.63,2.2-6.38,3.96-11.94,7.92h15.46c4.07,0,5.5-.88,6.66-5.94l.55-2.37h.99v16.95h-37.36v-.44Zm10.62-27.23c0-2.2-1.7-3.85-4.07-4.13-1.49-.17-2.04-.88-2.04-1.82,0-.22.11-.66.33-1.15l-.05-.06c-2.75,2.04-3.69,4.24-3.69,6.49,0,2.75,2.15,4.9,4.9,4.9,2.59,0,4.62-1.87,4.62-4.24Zm-5.83,1.71c0-.39.22-.72.55-.94v-2.86c-1.27,1.76-1.76,2.09-2.26,2.09s-.77-.38-.77-.77c0-.77.72-1.27,3.03-2.2h.93c2.37.94,3.08,1.49,3.08,2.2,0,.38-.27.77-.77.77-.61,0-1.05-.44-2.26-2.09v2.86c.33.22.55.55.55.94,0,.55-.49,1.04-1.05,1.04s-1.04-.5-1.04-1.04Zm-2.04-.33c0-.33.28-.61.61-.61s.61.27.61.61-.28.61-.61.61-.61-.27-.61-.61Zm33.29,24.98v-9.79h-.06c-1.16,2.53-2.86,3.8-6.82,3.8h-17.33l-8.31,6h32.52Zm-28.34-24.98c0-.33.28-.61.61-.61s.61.27.61.61-.28.61-.61.61-.61-.27-.61-.61Zm6,23.77c0-.44.77-.94,1.38-1.32h-1.82c-.22.33-.55.55-.94.55-.61,0-1.1-.44-1.1-1.05s.5-1.05,1.1-1.05c.38,0,.72.22.94.55h1.7c-.61-.39-1.27-.88-1.27-1.27s.28-.66.61-.66c.49,0,.83.44,1.38,1.93h2.04c-.61-.39-1.27-.88-1.27-1.27s.28-.66.61-.66c.5,0,.83.44,1.38,1.93h1.98c.28-.83,1.05-1.49,1.93-1.49s1.65.66,1.93,1.49h1.98c.55-1.49.88-1.93,1.38-1.93.33,0,.61.28.61.66s-.66.88-1.27,1.27h2.04c.55-1.49.88-1.93,1.38-1.93.33,0,.61.28.61.66s-.66.88-1.27,1.27h1.82c.17-.33.5-.55.94-.55.61,0,1.05.44,1.05,1.05s-.44,1.05-1.05,1.05c-.44,0-.77-.22-.94-.55h-1.92c.61.38,1.38.88,1.38,1.32s-.28.66-.61.66c-.55,0-.88-.44-1.43-1.98h-2.09c.61.38,1.38.88,1.38,1.32s-.27.66-.61.66c-.55,0-.88-.44-1.43-1.98h-1.92c-.28.83-1.05,1.49-1.93,1.49s-1.65-.66-1.93-1.49h-1.93c-.55,1.54-.88,1.98-1.43,1.98-.33,0-.61-.22-.61-.66s.77-.94,1.38-1.32h-2.09c-.55,1.54-.88,1.98-1.43,1.98-.33,0-.61-.22-.61-.66Zm5.23-3.52c0-.33.28-.61.61-.61s.61.28.61.61-.27.61-.61.61-.61-.27-.61-.61Zm0,3.47c0-.33.28-.6.61-.6s.61.27.61.6-.27.61-.61.61-.61-.28-.61-.61Zm6.44-15.07c5.23-3.41,10.12-7.04,10.12-11.22,0-5.01-5.72-8.09-15.84-8.75v.06c4.46,1.7,6.6,5.5,6.6,10.95,0,4.79-.83,7.59-4.07,10.89l.11.11c1.05-.77,2.15-1.43,3.08-2.04Zm-.83,11.61c0-.33.28-.61.61-.61s.61.28.61.61-.27.61-.61.61-.61-.27-.61-.61Zm0,3.47c0-.33.28-.6.61-.6s.61.27.61.6-.27.61-.61.61-.61-.28-.61-.61Zm4.62-21.73c0-.55.44-1.05.93-1.1.17-.55.28-1.04.33-1.6-.83.77-2.15,1.87-2.86,1.87-.5,0-.83-.33-.83-.77,0-.72.88-1.21,3.8-2.04v-.77c-3.25-.77-4.24-1.26-4.24-2.2,0-.44.38-.77.88-.77.88,0,2.37,1.1,3.3,1.98-.11-.55-.22-1.1-.49-1.65h-.06c-.61,0-1.1-.5-1.1-1.1s.5-1.1,1.1-1.1,1.1.5,1.1,1.1c0,.28-.11.5-.22.66.33.66.5,1.32.61,1.98.61-.99,1.43-2.15,2.09-2.15.55,0,.83.33.83.77,0,.83-.66,1.38-2.81,2.37v.93c1.93.99,2.53,1.43,2.53,1.93,0,.38-.27.71-.77.71-.61,0-1.27-.83-1.82-1.71-.11.61-.28,1.21-.44,1.87.22.16.33.44.33.77,0,.6-.49,1.1-1.1,1.1s-1.1-.5-1.1-1.1Zm-2.15-4.07c0-.38.28-.66.66-.66s.66.28.66.66-.28.66-.66.66-.66-.28-.66-.66Zm6.33,0c0-.38.27-.66.66-.66s.66.28.66.66-.27.66-.66.66-.66-.28-.66-.66Z"/>
      <path class="cls-1" d="m1074.98,28.8c0-3.47,2.53-6,6-6,3.14,0,5.72,2.37,5.72,5.5,0,2.92-1.76,4.73-4.62,5.39-.44.11-.66.33-.66.72,0,1.65,4.18,4.02,10.01,4.02,6.55,0,11.06-3.47,11.06-9.35s-2.86-9.35-9.74-9.35h-3.19v-1.43h2.86c6.77,0,8.47-3.74,8.47-8.8,0-4.73-3.3-7.98-9.79-7.98s-9.57,1.87-9.57,3.08c0,.33.22.5.83.71,2.92.99,4.24,3.08,4.24,5.23,0,3.03-2.53,4.9-5.56,4.9-3.19,0-5.61-2.42-5.61-5.61,0-5.83,6.38-9.63,17.33-9.63,11.88,0,19.37,3.69,19.37,9.63,0,5.23-4.79,7.65-13.86,9.08v.11c9.68,1.1,16.34,3.52,16.34,9.68,0,6.99-8.64,11.17-21.46,11.17-11,0-18.16-4.18-18.16-11.06Zm6.05,7.32c-.55-.55-.94-1.1-.94-1.71,0-.99.66-1.76,1.71-1.98,2.31-.5,3.58-1.93,3.58-4.24s-1.98-4.07-4.4-4.07c-2.75,0-4.68,1.92-4.68,4.68,0,3.03,1.65,5.5,4.68,7.37l.06-.06Zm4.18-25.69c0-1.93-1.15-3.41-3.74-4.07-.88-.22-1.27-.77-1.27-1.54,0-.38.17-.71.33-1.04h-.06c-2.42,1.71-3.74,3.69-3.74,6.05s1.82,4.29,4.29,4.29,4.18-1.54,4.18-3.69Zm-7.92,18.43c0-.38.27-.77.77-.77s.99.55,2.26,2.37v-2.64c-.33-.22-.55-.55-.55-.94,0-.55.49-1.05,1.05-1.05s1.05.5,1.05,1.05c0,.38-.22.71-.55.94v2.64c1.1-1.65,1.65-2.37,2.26-2.37.5,0,.77.38.77.77,0,.66-.99,1.65-3.08,2.48h-.93c-2.09-.83-3.03-1.81-3.03-2.48Zm2.64-17.16c0-.38.22-.72.55-.88v-2.64c-1.38,1.93-1.82,2.26-2.31,2.26-.44,0-.71-.33-.71-.72,0-.66.83-1.27,2.97-2.15h.94c2.2.88,3.03,1.48,3.03,2.15,0,.38-.27.72-.71.72-.55,0-1.05-.44-2.31-2.26v2.64c.33.16.55.5.55.88,0,.55-.44.99-.99.99s-.99-.44-.99-.99Zm-2.15,15.24c0-.33.28-.61.61-.61s.61.28.61.61-.27.61-.61.61-.61-.28-.61-.61Zm.22-15.35c0-.33.22-.55.55-.55s.55.22.55.55-.22.55-.55.55-.55-.22-.55-.55Zm4.62,15.35c0-.33.27-.61.61-.61s.61.28.61.61-.28.61-.61.61-.61-.28-.61-.61Zm.11-15.35c0-.33.22-.55.55-.55s.55.22.55.55-.22.55-.55.55-.55-.22-.55-.55Zm27.95-1.76c0-4.29-5.01-7.37-13.48-8.31l-.05.06c3.36,1.54,5.17,4.29,5.17,7.92,0,3.91-1.16,6.6-3.52,8.25l.05.06c8.58-1.71,11.83-4.02,11.83-7.98Zm2.48,18.87c0-4.13-3.3-6.49-13.2-8.2l-.06.05c2.75,1.76,4.02,4.68,4.02,8.53,0,4.35-2.26,7.65-6.49,9.41v.06c9.9-1.05,15.74-4.68,15.74-9.85Zm-8.8-15.19c0-.6.5-1.1,1.1-1.1.22-.61.38-1.15.49-1.76-1.27,1.27-1.93,1.71-2.42,1.71s-.83-.27-.83-.77c0-.66.99-1.21,3.3-1.71v-.77c-2.42-.66-3.47-1.38-3.47-2.2,0-.44.33-.66.77-.66.66,0,1.87,1.04,2.59,1.87-.05-.55-.22-1.1-.44-1.65-.61,0-1.1-.49-1.1-1.1s.5-1.1,1.1-1.1,1.1.49,1.1,1.1c0,.27-.11.5-.27.71.33.66.49,1.32.61,1.98.49-.77,1.1-1.6,1.6-1.6.44,0,.66.28.66.66,0,.6-.66,1.15-2.15,1.82v.99c1.82.71,2.64,1.32,2.64,2.04,0,.44-.27.77-.83.77-.49,0-1.05-.55-1.92-1.98-.11.71-.28,1.38-.61,2.04.16.22.27.44.27.71,0,.61-.49,1.1-1.1,1.1s-1.1-.5-1.1-1.1Zm-1.54-4.07c0-.38.28-.66.66-.66s.66.27.66.66-.28.66-.66.66-.66-.28-.66-.66Zm3.96,23.11c0-.55.44-1.05.94-1.1.16-.5.27-1.05.33-1.6-1.49,1.48-2.15,1.92-2.92,1.92-.49,0-.83-.38-.83-.83,0-.71.88-1.15,3.85-2.04v-.83c-2.75-.99-3.74-1.6-3.74-2.15,0-.44.33-.77.77-.77.77,0,2.09,1.1,2.92,1.93-.11-.49-.16-1.05-.33-1.6-.55-.06-.99-.55-.99-1.1,0-.61.5-1.1,1.1-1.1s1.1.49,1.1,1.1c0,.33-.11.61-.33.77.16.66.33,1.27.38,1.87.55-.88,1.27-1.87,1.87-1.87.5,0,.77.33.77.72,0,.72-.66,1.32-2.53,2.15v.94c2.2.88,2.86,1.38,2.86,2.15,0,.44-.33.83-.83.83-.61,0-1.1-.44-2.15-1.93-.05.55-.22,1.16-.38,1.76.22.17.33.44.33.77,0,.61-.5,1.1-1.1,1.1s-1.1-.5-1.1-1.1Zm-2.15-4.07c0-.38.27-.66.66-.66s.66.27.66.66-.27.66-.66.66-.66-.28-.66-.66Zm4.18-19.04c0-.38.28-.66.66-.66s.66.27.66.66-.28.66-.66.66-.66-.28-.66-.66Zm2.15,19.04c0-.38.28-.66.66-.66s.66.27.66.66-.28.66-.66.66-.66-.28-.66-.66Z"/>
    </g>
    <g>
      <path class="cls-2" d="m172.18,38.54l2.37-.55c5.06-1.16,5.94-2.59,5.94-6.66V9.82c0-4.07-.88-5.5-5.94-6.66l-2.37-.55v-.99h27.62v.99l-2.37.61c-4.51,1.1-5.39,2.53-5.39,6.6v9.24h19.97v-9.24c0-4.07-.88-5.5-5.39-6.6l-2.37-.61v-.99h27.62v.99l-2.37.55c-5.06,1.15-5.94,2.59-5.94,6.66v21.51c0,4.07.88,5.5,5.94,6.66l2.37.55v.99h-27.62v-.99l2.37-.61c4.51-1.1,5.39-2.53,5.39-6.6v-10.73h-19.97v10.73c0,4.07.88,5.5,5.39,6.6l2.37.61v.99h-27.62v-.99Z"/>
      <path class="cls-2" d="m233.25,38.54l.93-.22c3.41-.83,5.45-4.13,8.03-8.97L257.62.47h.77l19.86,34.06c1.43,2.53,3.19,3.41,5.39,3.85l.83.16v.99h-25.42v-.99l2.04-.39c2.64-.49,4.02-1.32,4.02-2.81,0-.77-.33-1.65-.94-2.7l-2.48-4.24h-17.39l-.11.22c-.61,1.16-1.1,2.86-1.1,4.13,0,2.7,1.71,4.62,4.95,5.39l1.6.39v.99h-16.39v-.99Zm27.67-11.44l-8.36-14.31-7.54,14.31h15.9Z"/>
      <path class="cls-2" d="m285.84,38.54l2.37-.55c5.06-1.16,5.94-2.59,5.94-6.66V9.82c0-4.07-.88-5.5-5.94-6.66l-2.37-.55v-.99h28.5c5.23,0,10.4.49,13.92,2.37,3.19,1.71,5.01,4.35,5.01,7.7,0,3.91-2.04,6.82-5.23,8.36-3.52,1.71-8.47,2.7-13.7,2.7h-8.64v8.58c0,4.07.83,5.72,5.94,6.66l2.92.55v.99h-28.72v-.99Zm25.75-17.22c6.27,0,9.85-3.36,9.85-9.63s-3.58-8.64-9.85-8.64h-5.89v18.27h5.89Z"/>
      <path class="cls-2" d="m336.84,38.54l2.37-.55c5.06-1.16,5.94-2.59,5.94-6.66V9.82c0-4.07-.88-5.5-5.94-6.66l-2.37-.55v-.99h28.5c5.23,0,10.4.49,13.92,2.37,3.19,1.71,5.01,4.35,5.01,7.7,0,3.91-2.04,6.82-5.23,8.36-3.52,1.71-8.47,2.7-13.7,2.7h-8.64v8.58c0,4.07.83,5.72,5.94,6.66l2.92.55v.99h-28.72v-.99Zm25.75-17.22c6.27,0,9.85-3.36,9.85-9.63s-3.58-8.64-9.85-8.64h-5.89v18.27h5.89Z"/>
      <path class="cls-2" d="m396.58,38.54l2.37-.55c5.06-1.16,5.94-2.59,5.94-6.66v-5.72l-12.93-18.32c-1.87-2.64-3.03-3.74-5.78-4.46l-.83-.22v-.99h25.91v.99l-2.04.38c-2.64.5-4.02,1.32-4.02,2.81,0,.77.33,1.6,1.05,2.64l9.3,13.37,5.67-9.3c1.27-2.04,1.7-3.36,1.7-4.73,0-2.31-1.54-3.96-4.95-4.79l-1.6-.38v-.99h16.18v.99l-.88.22c-2.64.66-5.01,3.3-8.42,8.97l-6.82,11.28v8.25c0,4.07.88,5.5,5.94,6.66l2.37.55v.99h-28.17v-.99Z"/>
    </g>
    <g>
      <path class="cls-1" d="m172.18,38.54l2.37-.55c5.06-1.16,5.94-2.59,5.94-6.66V9.82c0-4.07-.88-5.5-5.94-6.66l-2.37-.55v-.99h27.62v.99l-2.37.61c-4.51,1.1-5.39,2.53-5.39,6.6v9.24h19.97v-9.24c0-4.07-.88-5.5-5.39-6.6l-2.37-.61v-.99h27.62v.99l-2.37.55c-5.06,1.15-5.94,2.59-5.94,6.66v21.51c0,4.07.88,5.5,5.94,6.66l2.37.55v.99h-27.62v-.99l2.37-.61c4.51-1.1,5.39-2.53,5.39-6.6v-10.73h-19.97v10.73c0,4.07.88,5.5,5.39,6.6l2.37.61v.99h-27.62v-.99Zm11.5-.33c2.92,0,3.19-3.36,3.19-6.27V9.22c0-2.92-.28-6.27-3.19-6.27h-5.61v.06c2.92,1.27,3.85,3.14,3.85,6.82v21.51c0,3.69-.99,5.61-4.02,6.82v.06h5.78Zm37.74,0v-.06c-2.7-.66-2.97-3.36-2.97-6.22V9.22c0-2.86.27-5.56,2.97-6.22v-.06h-11.72v.06c2.81,1.27,3.74,3.19,3.74,6.82v21.51c0,3.69-.88,5.56-3.69,6.82v.06h11.66Z"/>
      <path class="cls-1" d="m233.25,38.54l.93-.22c3.41-.83,5.5-4.13,8.03-8.97L257.62.47h.77l19.86,34.06c1.43,2.53,3.19,3.41,5.39,3.85l.83.16v.99h-25.42v-.99l2.04-.39c2.64-.49,4.02-1.32,4.02-2.81,0-.77-.33-1.65-.94-2.7l-2.48-4.24h-17.39l-.11.22c-.61,1.16-1.1,2.86-1.1,4.13,0,2.7,1.71,4.62,4.95,5.39l1.6.39v.99h-16.39v-.99Zm8.91-.33c-.88-1.15-.83-3.25-.27-5.61h-.06c-1.43,2.53-2.75,4.29-4.57,5.56v.06h4.9Zm18.76-11.11l-8.36-14.31-7.54,14.31h15.9Zm14.25,11.11c-1.49-1.38-2.75-3.63-3.74-5.34l-15.46-26.57-2.7,5.12,12.1,20.58c.72,1.27,1.1,2.37,1.1,3.36,0,1.15-.49,2.09-1.7,2.81v.06h10.4Z"/>
      <path class="cls-1" d="m285.84,38.54l2.37-.55c5.06-1.16,5.94-2.59,5.94-6.66V9.82c0-4.07-.88-5.5-5.94-6.66l-2.37-.55v-.99h28.5c5.23,0,10.4.49,13.92,2.37,3.19,1.71,5.01,4.35,5.01,7.7,0,3.91-2.04,6.82-5.23,8.36-3.52,1.71-8.47,2.7-13.7,2.7h-8.64v8.58c0,4.07.83,5.72,5.94,6.66l2.92.55v.99h-28.72v-.99Zm11.5-.33c2.92,0,3.19-3.36,3.19-6.27V9.33c0-2.92-.27-6.27-3.19-6.27h-5.67v.06c3.03,1.27,3.91,3.19,3.91,6.71v21.51c0,3.69-.94,5.61-4.24,6.82v.06h6Zm14.25-16.89c6.27,0,9.85-3.36,9.85-9.63s-3.58-8.64-9.85-8.64h-5.89v18.27h5.89Zm12.77-1.76c2.25-1.54,3.74-4.18,3.74-7.87,0-3.47-1.26-6-3.74-7.37-1.71-1.05-3.96-1.32-6.77-1.49l-.06.06c3.74,1.7,5.34,4.57,5.34,8.8,0,4.51-1.76,7.81-5.72,9.57l.06.06c2.97-.22,5.39-.55,7.15-1.76Z"/>
      <path class="cls-1" d="m336.84,38.54l2.37-.55c5.06-1.16,5.94-2.59,5.94-6.66V9.82c0-4.07-.88-5.5-5.94-6.66l-2.37-.55v-.99h28.5c5.23,0,10.4.49,13.92,2.37,3.19,1.71,5.01,4.35,5.01,7.7,0,3.91-2.04,6.82-5.23,8.36-3.52,1.71-8.47,2.7-13.7,2.7h-8.64v8.58c0,4.07.83,5.72,5.94,6.66l2.92.55v.99h-28.72v-.99Zm11.5-.33c2.92,0,3.19-3.36,3.19-6.27V9.33c0-2.92-.28-6.27-3.19-6.27h-5.67v.06c3.03,1.27,3.91,3.19,3.91,6.71v21.51c0,3.69-.93,5.61-4.24,6.82v.06h6Zm14.25-16.89c6.27,0,9.85-3.36,9.85-9.63s-3.58-8.64-9.85-8.64h-5.89v18.27h5.89Zm12.76-1.76c2.26-1.54,3.74-4.18,3.74-7.87,0-3.47-1.27-6-3.74-7.37-1.71-1.05-3.96-1.32-6.77-1.49l-.06.06c3.74,1.7,5.34,4.57,5.34,8.8,0,4.51-1.76,7.81-5.72,9.57l.06.06c2.97-.22,5.39-.55,7.15-1.76Z"/>
      <path class="cls-1" d="m396.58,38.54l2.37-.55c5.06-1.16,5.94-2.59,5.94-6.66v-5.72l-12.93-18.32c-1.87-2.64-3.03-3.74-5.78-4.46l-.83-.22v-.99h25.91v.99l-2.04.38c-2.64.5-4.02,1.32-4.02,2.81,0,.77.33,1.6,1.05,2.64l9.3,13.37,5.67-9.3c1.27-2.04,1.7-3.36,1.7-4.73,0-2.31-1.54-3.96-4.95-4.79l-1.6-.38v-.99h16.18v.99l-.88.22c-2.64.66-5.01,3.3-8.42,8.97l-6.82,11.28v8.25c0,4.07.88,5.5,5.94,6.66l2.37.55v.99h-28.17v-.99Zm11.44-.33c2.92,0,3.25-3.36,3.25-6.27v-7.87l-9.63-13.75c-1.76-2.48-4.24-5.89-5.89-7.37h-6.22v.06c1.38.77,2.31,1.93,3.47,3.52l13.26,18.65v6.16c0,3.69-.93,5.61-3.85,6.82v.06h5.61Zm16.29-30.42l1.76-4.84h-4.84v.06c1.93,1.05,2.92,2.7,3.03,4.79h.06Z"/>
    </g>
  </g>
</svg>